<svg class="logo" xmlns="http://www.w3.org/2000/svg" width="978" height="394" viewBox="0 0 978 394">
  <g>
    <g class="author">
      <path d="M392.47,5.73a2.8,2.8,0,0,0-2.73-1.44,2.73,2.73,0,0,0-1.8.59,3.89,3.89,0,0,0-1.11,1.9,16.2,16.2,0,0,0-.57,3.44q-.16,2.13-.16,5.2a50.43,50.43,0,0,0,.22,5.3,11.76,11.76,0,0,0,.69,3.14,2.87,2.87,0,0,0,1.17,1.5,3.38,3.38,0,0,0,1.64.38,3.88,3.88,0,0,0,1.44-.26,2.44,2.44,0,0,0,1.15-1.05,6.86,6.86,0,0,0,.77-2.23,20.35,20.35,0,0,0,.28-3.78h5.83a26.08,26.08,0,0,1-.36,4.45,10.09,10.09,0,0,1-1.36,3.68A6.74,6.74,0,0,1,394.78,29a10.58,10.58,0,0,1-4.67.89,11,11,0,0,1-5.22-1.05,7.1,7.1,0,0,1-3-3,13.37,13.37,0,0,1-1.34-4.74,55.66,55.66,0,0,1-.3-6.07,55.82,55.82,0,0,1,.3-6.05,13.41,13.41,0,0,1,1.34-4.76,7.48,7.48,0,0,1,3-3.1A10.49,10.49,0,0,1,390.1,0,10.08,10.08,0,0,1,395,1a6.89,6.89,0,0,1,2.69,2.57,8.92,8.92,0,0,1,1.11,3.36,27.69,27.69,0,0,1,.22,3.38h-5.83A10.5,10.5,0,0,0,392.47,5.73Z"/>
      <path d="M421.85.57l7.65,28.9h-6.07l-1.34-6.11H414.4l-1.34,6.11H407L414.64.57Zm-.77,18-2.79-13h-.08l-2.79,13Z"/>
      <path d="M447.85.57a8.42,8.42,0,0,1,3.74.75,6.84,6.84,0,0,1,2.45,2,7.69,7.69,0,0,1,1.34,2.77,12.6,12.6,0,0,1,.4,3.18,10.37,10.37,0,0,1-.67,3.89,7.05,7.05,0,0,1-1.86,2.71,7.79,7.79,0,0,1-2.89,1.58,12.69,12.69,0,0,1-3.76.53h-3.12V29.47h-5.83V.57Zm-1.78,13.07a3.84,3.84,0,0,0,2.81-1.05A4.42,4.42,0,0,0,450,9.31,5.12,5.12,0,0,0,449,6a3.82,3.82,0,0,0-3.12-1.13h-2.43v8.78Z"/>
      <path d="M467.75.57h5.83v28.9h-5.83Z"/>
      <path d="M496.88.51a14.12,14.12,0,0,1,3.3.36,6.75,6.75,0,0,1,2.61,1.21,5.59,5.59,0,0,1,1.7,2.27,8.84,8.84,0,0,1,.61,3.48,7.21,7.21,0,0,1-1.09,4,5.49,5.49,0,0,1-3.28,2.29v.08a5.73,5.73,0,0,1,3.84,2.06A7.15,7.15,0,0,1,506,20.95a11.63,11.63,0,0,1-.45,3.24A6.59,6.59,0,0,1,504,26.88a7.58,7.58,0,0,1-2.79,1.84,11.55,11.55,0,0,1-4.27.69h-9.84V.51Zm-2.27,11.86a5.76,5.76,0,0,0,3.54-.87,3.51,3.51,0,0,0,1.11-2.93,3.63,3.63,0,0,0-1-2.91,4.93,4.93,0,0,0-3.2-.85H493v7.57Zm.61,12.75a5.7,5.7,0,0,0,3.4-.93q1.29-.93,1.3-3.44a5.47,5.47,0,0,0-.35-2.08,3.5,3.5,0,0,0-.93-1.34,3.36,3.36,0,0,0-1.4-.71,7.34,7.34,0,0,0-1.78-.2H493v8.7Z"/>
      <path d="M529.27.51l7.65,28.9h-6.07l-1.34-6.11h-7.69l-1.34,6.11h-6.07L522.07.51Zm-.77,18-2.79-13h-.08l-2.79,13Z"/>
      <path d="M557,.51a8.12,8.12,0,0,1,5.67,1.84q2,1.84,2,5.61a8.72,8.72,0,0,1-1.17,4.76,5.43,5.43,0,0,1-3.64,2.37v.08a5.28,5.28,0,0,1,3.2,1.42,6,6,0,0,1,1.25,3.52q.08.81.12,1.76t.08,2.13q.08,2.31.24,3.52a2.26,2.26,0,0,0,1.05,1.66v.24h-6.31A3.13,3.13,0,0,1,559,28a15.54,15.54,0,0,1-.16-1.64l-.16-5.55a4.57,4.57,0,0,0-.85-2.67,3.12,3.12,0,0,0-2.59-1h-3.12V29.41h-5.83V.51Zm-2.51,12.63a4.77,4.77,0,0,0,3.24-1,4.25,4.25,0,0,0,1.13-3.34q0-4-4-4h-2.75v8.34Z"/>
      <path d="M590.09.51l7.65,28.9h-6.07l-1.34-6.11h-7.69l-1.34,6.11h-6.07L582.88.51Zm-.77,18-2.79-13h-.08l-2.79,13Z"/>
    </g>
    <g class="title">
      <path d="M215.8,58.56,270,263.31H227L217.52,220H163l-9.46,43.3h-43l54.2-204.74Zm-5.45,127.61-19.79-92H190l-19.79,92Z"/>
      <path d="M385.29,193.15h.57V58.56h37.85V263.31h-47L326.21,140.93h-.57V263.31H287.79V58.56h47.6Z"/>
      <path d="M772.09,193.15h.57V58.56h37.85V263.31h-47L713,140.93h-.57V263.31H674.6V58.56h47.6Z"/>
      <path d="M577,92.4H532.29V263.31H491V92.4H446.26V58.56H577Z"/>
      <path d="M601.34,58.56h41.29V263.31H601.34Z"/>
      <path d="M975.85,118.49q-2.15-19.63-9.46-33.69a53,53,0,0,0-21.08-21.94Q931.77,55.11,909.06,55h-2.19q-22.7.12-36.25,7.88A53,53,0,0,0,849.55,84.8q-7.31,14-9.46,33.69a396.22,396.22,0,0,0-2.15,42.87,395.18,395.18,0,0,0,2.15,43q2.15,19.5,9.46,33.55a50.29,50.29,0,0,0,21.08,21.51q13.55,7.33,36.25,7.45h2.19q22.7-.11,36.25-7.45a50.26,50.26,0,0,0,21.08-21.51q7.31-14,9.46-33.55a393.76,393.76,0,0,0,2.15-43A394.79,394.79,0,0,0,975.85,118.49ZM908.32,237.36h-.7q-9.17,0-14.77-4.16T884.25,220q-3-9-4-23.51t-1-35.13q0-20.65,1-35t4-23.51q3-9.17,8.6-13.33t14.77-4.16h.7q9.18,0,14.77,4.16t8.61,13.33q3,9.18,4,23.51t1,35q0,20.65-1,35.13t-4,23.51q-3,9-8.61,13.19T908.32,237.36Z"/>
      <path d="M114.42,58.56V92.4H41.29v48.18h68.82v33.84H41.29v88.89H0V58.56Z"/>
    </g>
    <g class="meta">
      <path d="M399.46,309.28c0,1.57-.62,3.16-3.16,3.16s-3.17-1.59-3.17-3.16V298.84H395V309.6c0,.92.34,1.38,1.31,1.38s1.29-.47,1.29-1.38V298.84h1.87Z"/>
      <path d="M401.8,298.84h2.58l2.2,11.21h0V298.84h1.76v13.48h-2.69l-2.2-11.5h0v11.5H401.8Z"/>
      <path d="M413.25,298.84h2.17l2.75,13.48h-1.87l-.62-3.44h-2.91l-.62,3.44h-1.87Zm-.21,8.48h2.37l-1.16-6.5h0Z"/>
      <path d="M424.55,298.84h3.08c2.54,0,3,.69,3,3.81s-.49,3.81-3,3.81h-1.21v5.86h-1.87Zm1.87,6.05h1c1.27,0,1.4-.21,1.4-2.24s-.13-2.24-1.4-2.24h-1Z"/>
      <path d="M432.82,298.84h2.9c2.73,0,3,.73,3,3.68,0,1.81-.24,2.6-1.77,3.06v0c1.27.13,1.7.78,1.7,2.05v2.93a9.23,9.23,0,0,0,.11,1.72H437a2.32,2.32,0,0,1-.22-1.21v-3c0-1.27-.22-1.61-1.46-1.61h-.64v5.86h-1.87Zm1.87,6.05h.49c1.48,0,1.68-.28,1.68-2.3s-.11-2.19-1.27-2.19h-.9Z"/>
      <path d="M441,302.28c0-1.89.62-3.55,3.16-3.55s3.17,1.25,3.17,3.34v6.82c0,1.89-.62,3.55-3.17,3.55-2.39,0-3.16-1.25-3.16-3.34Zm1.87,6.93c0,1.16.52,1.77,1.29,1.77s1.31-.62,1.31-1.77v-7.08c0-1.33-.45-1.94-1.31-1.94s-1.29.62-1.29,1.94Z"/>
      <path d="M449.71,298.84h3c3,0,3.27,1,3.27,4.93v4c0,3.46-.62,4.54-3.57,4.54h-2.71Zm1.87,11.92h.9c1.38,0,1.64-.73,1.64-3v-4.63c0-2-.21-2.67-1.79-2.67h-.75Z"/>
      <path d="M464.6,309.28c0,1.57-.62,3.16-3.16,3.16s-3.17-1.59-3.17-3.16V298.84h1.87V309.6c0,.92.34,1.38,1.31,1.38s1.29-.47,1.29-1.38V298.84h1.87Z"/>
      <path d="M466.45,310.62l4.2-10.22H467v-1.57h5.55v1.57l-4.2,10.35h4.3v1.57h-6.16Z"/>
      <path d="M474.46,298.84h1.87v13.48h-1.87Z"/>
      <path d="M478.61,302.28c0-1.89.62-3.55,3.16-3.55s3.17,1.25,3.17,3.34v6.82c0,1.89-.62,3.55-3.17,3.55-2.39,0-3.16-1.25-3.16-3.34Zm1.87,6.93c0,1.16.52,1.77,1.29,1.77s1.31-.62,1.31-1.77v-7.08c0-1.33-.45-1.94-1.31-1.94s-1.29.62-1.29,1.94Z"/>
      <path d="M487.27,298.84h2.58l2.2,11.21h0V298.84h1.76v13.48h-2.69l-2.2-11.5h0v11.5h-1.64Z"/>
      <path d="M496.24,298.84h5.08v1.57h-3.21v4.22h3v1.57h-3v4.56h3.21v1.57h-5.08Z"/>
      <path d="M510.21,293.44h2.62v16.69h4.39v2.2h-7Z"/>
      <path d="M523.34,293.44h3l3.84,18.88h-2.62l-.86-4.81h-4.08l-.86,4.81h-2.62Zm-.29,11.87h3.32l-1.62-9.1h-.05Z"/>
      <path d="M532.89,293.44h3.61l3.09,15.69h.05V293.44h2.46v18.88h-3.77l-3.09-16.11h-.05v16.11h-2.3Z"/>
      <path d="M545.44,293.44h4.21c4.24,0,4.58,1.41,4.58,6.9V306c0,4.84-.86,6.36-5,6.36h-3.79Zm2.62,16.69h1.26c1.93,0,2.3-1,2.3-4.26v-6.49c0-2.8-.29-3.74-2.51-3.74h-1Z"/>
      <path d="M563.77,293.44h2.62v8.11h3.48v-8.11h2.62v18.88h-2.62v-8.58h-3.48v8.58h-2.62Z"/>
      <path d="M575.75,298.25c0-2.64.86-5,4.42-5,3.37,0,4.45,1.75,4.45,4.68v9.55c0,2.64-.86,5-4.45,5-3.35,0-4.42-1.75-4.42-4.68Zm2.62,9.7c0,1.62.73,2.48,1.8,2.48S582,309.58,582,308V298c0-1.86-.63-2.72-1.83-2.72s-1.8.86-1.8,2.72Z"/>
      <path d="M127.23,324.87h2.9c2.73,0,3,.73,3,3.68,0,1.81-.24,2.6-1.77,3.06v0c1.27.13,1.7.78,1.7,2.05v2.93a9.23,9.23,0,0,0,.11,1.72h-1.76a2.32,2.32,0,0,1-.22-1.21v-3c0-1.27-.22-1.61-1.46-1.61h-.64v5.86h-1.87Zm1.87,6.05h.49c1.48,0,1.68-.28,1.68-2.3s-.11-2.19-1.27-2.19h-.9Z"/>
      <path d="M135.51,324.87h5.08v1.57h-3.21v4.22h3v1.57h-3v4.56h3.21v1.57h-5.08Z"/>
      <path d="M146.75,328.44v-.69c0-1-.47-1.53-1.2-1.53s-1.29.78-1.29,2.22v6.8c0,1.08.52,1.77,1.29,1.77a5.47,5.47,0,0,0,1.2-.13v-4h-1.23v-1.57h3.1v6.78a15.62,15.62,0,0,1-3.08.34c-2.37,0-3.14-1.25-3.14-3.34v-6.82c0-2.52.77-3.55,3.18-3.55,2,0,3,.73,3,2.45v1.23Z"/>
      <path d="M151,324.87h1.87v13.48H151Z"/>
      <path d="M157.65,324.87h2.17l2.75,13.48h-1.87l-.62-3.44h-2.91l-.62,3.44h-1.87Zm-.21,8.48h2.37l-1.16-6.5h0Z"/>
      <path d="M168.95,324.87h3c3,0,3.27,1,3.27,4.93v4c0,3.46-.62,4.54-3.57,4.54h-2.71Zm1.87,11.92h.9c1.38,0,1.64-.73,1.64-3v-4.63c0-2-.21-2.67-1.79-2.67h-.75Z"/>
      <path d="M177.5,324.87h1.87v13.48H177.5Z"/>
      <path d="M186.46,319.48h4.21c4.24,0,4.58,1.41,4.58,6.9V332c0,4.84-.86,6.36-5,6.36h-3.79Zm2.62,16.69h1.26c1.94,0,2.3-1,2.3-4.26v-6.49c0-2.8-.29-3.74-2.51-3.74h-1Z"/>
      <path d="M201.53,319.48h3l3.84,18.88h-2.62l-.86-4.81h-4.08l-.86,4.81h-2.62Zm-.29,11.87h3.32l-1.62-9.1h-.05Z"/>
      <path d="M211.07,319.48h3.61l3.09,15.69h.05V319.48h2.46v18.88h-3.77l-3.09-16.11h-.05v16.11h-2.3Z"/>
      <path d="M223.55,319.48h2.62v18.88h-2.62Z"/>
      <path d="M229.43,319.48h7.11v2.2H232v5.91h4.24v2.2H232v6.38h4.5v2.2h-7.11Z"/>
      <path d="M239.08,319.48h2.62v16.69h4.39v2.2h-7Z"/>
      <path d="M255,319.48h4.55c3.22,0,3.77,1.13,3.77,4.58,0,3.71-.6,4.32-2.38,4.55v.05c2.09.39,2.51,1.1,2.51,4.32,0,4.08-.52,5.39-4.34,5.39H255Zm2.62,8.11h1.52c1.57,0,1.73-.31,1.73-3.4,0-2.15-.34-2.67-2-2.67h-1.23Zm0,8.74h1.62c1.49,0,1.75-.44,1.75-3.43s-.24-3.27-1.67-3.27h-1.7Z"/>
      <path d="M266.59,319.48h7.11v2.2h-4.5v5.91h4.24v2.2h-4.24v6.38h4.5v2.2h-7.11Z"/>
      <path d="M276.24,319.48h4.21c4.24,0,4.58,1.41,4.58,6.9V332c0,4.84-.86,6.36-5,6.36h-3.79Zm2.62,16.69h1.26c1.94,0,2.3-1,2.3-4.26v-6.49c0-2.8-.29-3.74-2.51-3.74h-1Z"/>
      <path d="M297.09,334.1c0,2.2-.86,4.42-4.42,4.42s-4.45-2.22-4.45-4.42V319.48h2.62v15.06c0,1.28.47,1.94,1.83,1.94s1.8-.65,1.8-1.94V319.48h2.62Z"/>
      <path d="M300.07,332.89h2.62v1.54c0,1.25.47,2,1.52,2,1.39,0,1.73-.94,1.73-2.17,0-1.6-.08-2.12-2.8-4.81-1.67-1.67-3.06-3.19-3.06-5.75,0-3.09,1.44-4.42,4.29-4.42a4.45,4.45,0,0,1,3.06,1,3,3,0,0,1,.76,2.41v1.78h-2.46v-1.49c0-1.07-.44-1.7-1.46-1.7s-1.57.6-1.57,2.07c0,1.28.26,2.07,2.67,4.58,2.56,2.67,3,3.58,3,5.86,0,3-1.15,4.66-4.26,4.66-2.41,0-4.05-1-4.05-3.37Z"/>
      <path d="M314.92,319.48h3l3.84,18.88h-2.62l-.86-4.81h-4.08l-.86,4.81h-2.62Zm-.29,11.87H318l-1.62-9.1h-.05Z"/>
      <path d="M335,334.36h0v-2.82h1.57v2.71a4.55,4.55,0,0,1-.43,2.32l.82,1.79H335.1l-.17-.39a3.65,3.65,0,0,1-1.89.5c-2.15,0-2.63-1.25-2.63-3.46,0-1.61.09-3.29,1.51-4a6.88,6.88,0,0,1-1-3.34c0-1.85,1-2.82,2.37-2.82,1.7,0,2.39,1,2.39,2.56a4.94,4.94,0,0,1-1.94,3.85Zm-2.46-1.92a4.64,4.64,0,0,0-.34,2.45c0,1.53.22,2.24,1,2.24a1.29,1.29,0,0,0,1.1-.56Zm0-4.84a5.27,5.27,0,0,0,.62,2.46,3.61,3.61,0,0,0,1-2.56c0-.82-.26-1.29-.8-1.29S332.48,326.72,332.48,327.6Z"/>
      <path d="M345.63,319.48h4.21c4.24,0,4.58,1.41,4.58,6.9V332c0,4.84-.86,6.36-5,6.36h-3.79Zm2.62,16.69h1.26c1.94,0,2.3-1,2.3-4.26v-6.49c0-2.8-.29-3.74-2.51-3.74h-1Z"/>
      <path d="M360.7,319.48h3l3.84,18.88H365l-.86-4.81H360l-.86,4.81h-2.62Zm-.29,11.87h3.32l-1.62-9.1h-.05Z"/>
      <path d="M370.24,319.48h3.61l3.09,15.69H377V319.48h2.46v18.88h-3.77l-3.09-16.11h-.05v16.11h-2.3Z"/>
      <path d="M382.71,319.48h2.62v18.88h-2.62Z"/>
      <path d="M388.6,319.48h2.62v16.69h4.39v2.2h-7Z"/>
      <path d="M398.17,324.29c0-2.64.86-5,4.42-5,3.37,0,4.45,1.75,4.45,4.68v9.55c0,2.64-.86,5-4.45,5-3.35,0-4.42-1.75-4.42-4.68Zm2.62,9.7c0,1.62.73,2.48,1.8,2.48s1.83-.86,1.83-2.48v-9.91c0-1.86-.63-2.72-1.83-2.72s-1.8.86-1.8,2.72Z"/>
      <path d="M416.58,319.48h4.55c3.22,0,3.77,1.13,3.77,4.58,0,3.71-.6,4.32-2.38,4.55v.05c2.09.39,2.51,1.1,2.51,4.32,0,4.08-.52,5.39-4.34,5.39h-4.11Zm2.62,8.11h1.52c1.57,0,1.73-.31,1.73-3.4,0-2.15-.34-2.67-2-2.67H419.2Zm0,8.74h1.62c1.49,0,1.75-.44,1.75-3.43s-.24-3.27-1.67-3.27h-1.7Z"/>
      <path d="M437,334.1c0,2.2-.86,4.42-4.42,4.42s-4.45-2.22-4.45-4.42V319.48h2.62v15.06c0,1.28.47,1.94,1.83,1.94s1.8-.65,1.8-1.94V319.48H437Z"/>
      <path d="M440.22,319.48h4.55c3.22,0,3.77,1.13,3.77,4.58,0,3.71-.6,4.32-2.38,4.55v.05c2.09.39,2.51,1.1,2.51,4.32,0,4.08-.52,5.39-4.34,5.39h-4.11Zm2.62,8.11h1.52c1.57,0,1.73-.31,1.73-3.4,0-2.15-.34-2.67-2-2.67h-1.23Zm0,8.74h1.62c1.49,0,1.75-.44,1.75-3.43s-.24-3.27-1.67-3.27h-1.7Z"/>
      <path d="M455.13,319.48h3L462,338.36h-2.62l-.86-4.81h-4.08l-.86,4.81H451Zm-.29,11.87h3.32l-1.62-9.1h-.05Z"/>
      <path d="M464.67,319.48h3.61l3.09,15.69h.05V319.48h2.46v18.88h-3.77L467,322.25H467v16.11h-2.3Z"/>
      <path d="M477.15,319.48h2.62v18.88h-2.62Z"/>
      <path d="M495.31,324.87h3c3,0,3.27,1,3.27,4.93v4c0,3.46-.62,4.54-3.57,4.54h-2.71Zm1.87,11.92h.9c1.38,0,1.64-.73,1.64-3v-4.63c0-2-.21-2.67-1.79-2.67h-.75Z"/>
      <path d="M503.86,324.87h1.87v13.48h-1.87Z"/>
      <path d="M508.07,324.87H511c2.73,0,3,.73,3,3.68,0,1.81-.24,2.6-1.77,3.06v0c1.27.13,1.7.78,1.7,2.05v2.93a9.31,9.31,0,0,0,.11,1.72h-1.75a2.31,2.31,0,0,1-.22-1.21v-3c0-1.27-.22-1.61-1.46-1.61h-.63v5.86h-1.87Zm1.87,6.05h.49c1.48,0,1.68-.28,1.68-2.3s-.11-2.19-1.27-2.19h-.9Z"/>
      <path d="M516.34,324.87h5.08v1.57h-3.21v4.22h3v1.57h-3v4.56h3.21v1.57h-5.08Z"/>
      <path d="M522.75,336.66l4.2-10.22h-3.68v-1.57h5.55v1.57l-4.2,10.35h4.3v1.57h-6.16Z"/>
      <path d="M530.76,324.87h1.87v13.48h-1.87Z"/>
      <path d="M534.91,328.31c0-1.89.62-3.55,3.16-3.55s3.18,1.25,3.18,3.34v6.82c0,1.89-.62,3.55-3.18,3.55-2.39,0-3.16-1.25-3.16-3.34Zm1.87,6.93c0,1.16.52,1.77,1.29,1.77s1.31-.62,1.31-1.77v-7.08c0-1.33-.45-1.94-1.31-1.94s-1.29.62-1.29,1.94Z"/>
      <path d="M543.58,324.87h2.58l2.2,11.21h0V324.87h1.76v13.48h-2.69l-2.2-11.5h0v11.5h-1.64Z"/>
      <path d="M552.54,324.87h5.08v1.57h-3.21v4.22h3v1.57h-3v4.56h3.21v1.57h-5.08Z"/>
      <path d="M563.92,324.87h3c3,0,3.27,1,3.27,4.93v4c0,3.46-.62,4.54-3.57,4.54h-2.71Zm1.87,11.92h.9c1.38,0,1.64-.73,1.64-3v-4.63c0-2-.21-2.67-1.79-2.67h-.75Z"/>
      <path d="M572.53,324.87h5.08v1.57H574.4v4.22h3v1.57h-3v4.56h3.21v1.57h-5.08Z"/>
      <path d="M579.42,324.87h1.87v11.92h3.14v1.57h-5Z"/>
      <path d="M586.32,324.87h1.87v11.92h3.14v1.57h-5Z"/>
      <path d="M595.69,324.87h2.17l2.75,13.48h-1.87l-.62-3.44h-2.91l-.62,3.44h-1.87Zm-.21,8.48h2.37l-1.16-6.5h0Z"/>
      <path d="M607,324.87h5.08v1.57h-3.21v4.22h3v1.57h-3v6.13H607Z"/>
      <path d="M613.83,328.31c0-1.89.62-3.55,3.16-3.55s3.18,1.25,3.18,3.34v6.82c0,1.89-.62,3.55-3.18,3.55-2.39,0-3.16-1.25-3.16-3.34Zm1.87,6.93c0,1.16.52,1.77,1.29,1.77s1.31-.62,1.31-1.77v-7.08c0-1.33-.45-1.94-1.31-1.94s-1.29.62-1.29,1.94Z"/>
      <path d="M621.7,324.87H628v1.57H625.8v11.92h-1.87V326.44H621.7Z"/>
      <path d="M629.58,328.31c0-1.89.62-3.55,3.16-3.55s3.18,1.25,3.18,3.34v6.82c0,1.89-.62,3.55-3.18,3.55-2.39,0-3.16-1.25-3.16-3.34Zm1.87,6.93c0,1.16.52,1.77,1.29,1.77s1.31-.62,1.31-1.77v-7.08c0-1.33-.45-1.94-1.31-1.94s-1.29.62-1.29,1.94Z"/>
      <path d="M642.6,328.44v-.69c0-1-.47-1.53-1.2-1.53s-1.29.78-1.29,2.22v6.8c0,1.08.52,1.77,1.29,1.77a5.48,5.48,0,0,0,1.2-.13v-4h-1.23v-1.57h3.1v6.78a15.61,15.61,0,0,1-3.08.34c-2.37,0-3.14-1.25-3.14-3.34v-6.82c0-2.52.77-3.55,3.17-3.55,2,0,3,.73,3,2.45v1.23Z"/>
      <path d="M649.34,324.87h2.17l2.75,13.48h-1.87l-.62-3.44h-2.91l-.62,3.44h-1.87Zm-.21,8.48h2.37l-1.16-6.5h0Z"/>
      <path d="M656.16,324.87h5.08v1.57H658v4.22h3v1.57h-3v6.13h-1.87Z"/>
      <path d="M663,324.87h1.87v13.48H663Z"/>
      <path d="M669.68,324.87h2.17l2.75,13.48h-1.87l-.62-3.44H669.2l-.62,3.44h-1.87Zm-.21,8.48h2.37l-1.16-6.5h0Z"/>
      <path d="M681,332.89h2.62v1.54c0,1.25.47,2,1.52,2,1.39,0,1.73-.94,1.73-2.17,0-1.6-.08-2.12-2.8-4.81-1.67-1.67-3.06-3.19-3.06-5.75,0-3.09,1.44-4.42,4.29-4.42a4.45,4.45,0,0,1,3.06,1,3,3,0,0,1,.76,2.41v1.78h-2.46v-1.49c0-1.07-.44-1.7-1.46-1.7s-1.57.6-1.57,2.07c0,1.28.26,2.07,2.67,4.58,2.56,2.67,3,3.58,3,5.86,0,3-1.15,4.66-4.26,4.66-2.41,0-4.05-1-4.05-3.37Z"/>
      <path d="M692.27,319.48h2.62v18.88h-2.62Z"/>
      <path d="M698.16,319.48h2.62v16.69h4.39v2.2h-7Z"/>
      <path d="M704.43,319.48H707l2.72,15h.05l2.72-15h2.62l-3.84,18.88h-3Z"/>
      <path d="M717.66,319.48h2.62v18.88h-2.62Z"/>
      <path d="M727,319.48h3l3.84,18.88h-2.62l-.86-4.81h-4.08l-.86,4.81h-2.62Zm-.29,11.87h3.32l-1.62-9.1h-.05Z"/>
      <path d="M742.85,319.48h4.21c4.24,0,4.58,1.41,4.58,6.9V332c0,4.84-.86,6.36-5,6.36h-3.79Zm2.62,16.69h1.26c1.93,0,2.3-1,2.3-4.26v-6.49c0-2.8-.29-3.74-2.51-3.74h-1Z"/>
      <path d="M754.83,319.48h2.62v18.88h-2.62Z"/>
      <path d="M773.08,324.47v-1c0-1.33-.65-2.14-1.67-2.14-1.2,0-1.8,1.1-1.8,3.11V334c0,1.52.73,2.48,1.8,2.48a7.58,7.58,0,0,0,1.67-.18v-5.54h-1.73v-2.2h4.34V338a22,22,0,0,1-4.32.47c-3.32,0-4.39-1.75-4.39-4.68v-9.55c0-3.53,1.07-5,4.45-5,2.8,0,4.26,1,4.26,3.43v1.73Z"/>
      <path d="M779,319.48h4.05c3.82,0,4.21,1,4.21,5.15,0,2.54-.34,3.63-2.48,4.29V329c1.78.18,2.38,1.1,2.38,2.88V336a13,13,0,0,0,.16,2.41H784.9a3.24,3.24,0,0,1-.31-1.7V332.4c0-1.78-.31-2.25-2-2.25h-.89v8.21H779Zm2.62,8.47h.68c2.07,0,2.35-.39,2.35-3.22s-.16-3.06-1.78-3.06h-1.26Z"/>
      <path d="M790.63,319.48h7.11v2.2h-4.5v5.91h4.24v2.2h-4.24v6.38h4.5v2.2h-7.11Z"/>
      <path d="M806.37,324.47v-1c0-1.33-.65-2.14-1.67-2.14-1.2,0-1.8,1.1-1.8,3.11V334c0,1.52.73,2.48,1.8,2.48a7.58,7.58,0,0,0,1.67-.18v-5.54h-1.73v-2.2H809V338a22,22,0,0,1-4.32.47c-3.32,0-4.39-1.75-4.39-4.68v-9.55c0-3.53,1.07-5,4.45-5,2.8,0,4.26,1,4.26,3.43v1.73Z"/>
      <path d="M812.25,324.29c0-2.64.86-5,4.42-5,3.37,0,4.45,1.75,4.45,4.68v9.55c0,2.64-.86,5-4.45,5-3.35,0-4.42-1.75-4.42-4.68Zm2.62,9.7c0,1.62.73,2.48,1.8,2.48s1.83-.86,1.83-2.48v-9.91c0-1.86-.63-2.72-1.83-2.72s-1.8.86-1.8,2.72Z"/>
      <path d="M824.39,319.48h4.05c3.82,0,4.21,1,4.21,5.15,0,2.54-.34,3.63-2.48,4.29V329c1.78.18,2.38,1.1,2.38,2.88V336a13,13,0,0,0,.16,2.41h-2.46a3.24,3.24,0,0,1-.31-1.7V332.4c0-1.78-.31-2.25-2-2.25H827v8.21h-2.62Zm2.62,8.47h.68c2.07,0,2.35-.39,2.35-3.22s-.16-3.06-1.78-3.06H827Z"/>
      <path d="M835.9,319.48h2.62v18.88H835.9Z"/>
      <path d="M841.7,324.29c0-2.64.86-5,4.42-5,3.37,0,4.45,1.75,4.45,4.68v9.55c0,2.64-.86,5-4.45,5-3.35,0-4.42-1.75-4.42-4.68Zm2.62,9.7c0,1.62.73,2.48,1.8,2.48S848,335.61,848,334v-9.91c0-1.86-.63-2.72-1.83-2.72s-1.8.86-1.8,2.72Z"/>
      <path d="M57.71,356.14c0-1.89.62-3.55,3.16-3.55S64,353.84,64,355.93v6.82c0,1.89-.62,3.55-3.17,3.55-2.39,0-3.16-1.25-3.16-3.34Zm1.87,6.93c0,1.16.52,1.77,1.29,1.77s1.31-.62,1.31-1.77V356c0-1.33-.45-1.94-1.31-1.94s-1.29.62-1.29,1.94Z"/>
      <path d="M66.37,352.7h3.08c2.54,0,3,.69,3,3.81s-.49,3.81-3,3.81H68.24v5.86H66.37Zm1.87,6.05h1c1.27,0,1.4-.21,1.4-2.24s-.13-2.24-1.4-2.24h-1Z"/>
      <path d="M74.65,352.7h5.08v1.57H76.52v4.22h3v1.57h-3v4.56h3.21v1.57H74.65Z"/>
      <path d="M81.54,352.7h2.9c2.73,0,3,.73,3,3.68,0,1.81-.24,2.6-1.77,3.06v0c1.27.13,1.7.78,1.7,2.05v2.93a9.23,9.23,0,0,0,.11,1.72H85.73A2.32,2.32,0,0,1,85.5,365v-3c0-1.27-.22-1.61-1.46-1.61h-.64v5.86H81.54Zm1.87,6.05h.49c1.48,0,1.68-.28,1.68-2.3s-.11-2.19-1.27-2.19h-.9Z"/>
      <path d="M92.3,352.7h2.17l2.75,13.48H95.35l-.62-3.44H91.82l-.62,3.44H89.33Zm-.21,8.48h2.37l-1.16-6.5h0Z"/>
      <path d="M97,352.7h6.35v1.57h-2.24v11.92H99.29V354.27H97Z"/>
      <path d="M104.93,356.14c0-1.89.62-3.55,3.16-3.55s3.17,1.25,3.17,3.34v6.82c0,1.89-.62,3.55-3.17,3.55-2.39,0-3.16-1.25-3.16-3.34Zm1.87,6.93c0,1.16.52,1.77,1.29,1.77s1.31-.62,1.31-1.77V356c0-1.33-.45-1.94-1.31-1.94s-1.29.62-1.29,1.94Z"/>
      <path d="M113.6,352.7h2.9c2.73,0,3,.73,3,3.68,0,1.81-.24,2.6-1.77,3.06v0c1.27.13,1.7.78,1.7,2.05v2.93a9.23,9.23,0,0,0,.11,1.72h-1.76a2.32,2.32,0,0,1-.22-1.21v-3c0-1.27-.22-1.61-1.46-1.61h-.64v5.86H113.6Zm1.87,6.05H116c1.48,0,1.68-.28,1.68-2.3s-.11-2.19-1.27-2.19h-.9Z"/>
      <path d="M121.87,352.7H127v1.57h-3.21v4.22h3v1.57h-3v4.56H127v1.57h-5.08Z"/>
      <path d="M137.75,362.19h0v-2.82h1.57v2.71a4.55,4.55,0,0,1-.43,2.32l.82,1.79h-1.87l-.17-.39a3.65,3.65,0,0,1-1.89.5c-2.15,0-2.63-1.25-2.63-3.46,0-1.61.09-3.29,1.51-4a6.88,6.88,0,0,1-1-3.34c0-1.85,1-2.82,2.37-2.82,1.7,0,2.39,1,2.39,2.56a4.94,4.94,0,0,1-1.94,3.85Zm-2.46-1.92a4.64,4.64,0,0,0-.34,2.45c0,1.53.22,2.24,1,2.24a1.29,1.29,0,0,0,1.1-.56Zm0-4.84a5.27,5.27,0,0,0,.62,2.46,3.61,3.61,0,0,0,1-2.56c0-.82-.26-1.29-.8-1.29S135.26,354.55,135.26,355.43Z"/>
      <path d="M146.14,356.14c0-1.89.62-3.55,3.16-3.55,1.85,0,2.71.93,2.71,2.45v1.34h-1.76v-.93c0-.86-.3-1.4-1.08-1.4-1,0-1.16.69-1.16,2.32V363c0,1.59.5,1.87,1.1,1.87s1.14-.49,1.14-1.61v-.93H152v1.49c0,1.42-.58,2.5-2.75,2.5-2.35,0-3.12-1.25-3.12-3.34Z"/>
      <path d="M153.87,356.14c0-1.89.62-3.55,3.16-3.55s3.17,1.25,3.17,3.34v6.82c0,1.89-.62,3.55-3.17,3.55-2.39,0-3.16-1.25-3.16-3.34Zm1.87,6.93c0,1.16.52,1.77,1.29,1.77s1.31-.62,1.31-1.77V356c0-1.33-.45-1.94-1.31-1.94s-1.29.62-1.29,1.94Z"/>
      <path d="M162.54,352.7h1.87v11.92h3.14v1.57h-5Z"/>
      <path d="M169.37,356.14c0-1.89.62-3.55,3.16-3.55s3.17,1.25,3.17,3.34v6.82c0,1.89-.62,3.55-3.17,3.55-2.39,0-3.16-1.25-3.16-3.34Zm1.87,6.93c0,1.16.52,1.77,1.29,1.77s1.31-.62,1.31-1.77V356c0-1.33-.45-1.94-1.31-1.94s-1.29.62-1.29,1.94Z"/>
      <path d="M178,352.7h2.9c2.73,0,3,.73,3,3.68,0,1.81-.24,2.6-1.77,3.06v0c1.27.13,1.7.78,1.7,2.05v2.93a9.23,9.23,0,0,0,.11,1.72h-1.76A2.32,2.32,0,0,1,182,365v-3c0-1.27-.22-1.61-1.46-1.61h-.64v5.86H178Zm1.87,6.05h.49c1.48,0,1.68-.28,1.68-2.3s-.11-2.19-1.27-2.19h-.9Z"/>
      <path d="M186.26,352.7h1.87v13.48h-1.87Z"/>
      <path d="M190.26,362.28h1.87v1.1c0,.9.34,1.46,1.08,1.46,1,0,1.23-.67,1.23-1.55,0-1.14-.06-1.51-2-3.44-1.2-1.2-2.19-2.28-2.19-4.11,0-2.2,1-3.16,3.06-3.16a3.18,3.18,0,0,1,2.19.75,2.17,2.17,0,0,1,.54,1.72v1.27h-1.76v-1.06c0-.77-.32-1.21-1-1.21s-1.12.43-1.12,1.48.19,1.47,1.9,3.27,2.17,2.56,2.17,4.18c0,2.11-.82,3.33-3,3.33-1.72,0-2.9-.73-2.9-2.41Z"/>
      <path d="M197.8,352.7h6.35v1.57h-2.24v11.92H200V354.27H197.8Z"/>
      <path d="M212.52,347.31h4.16l2.41,14.38h.05l2.41-14.38h4.05v18.88h-2.46v-17h-.05l-2.67,17H217.8l-2.93-17h-.05v17h-2.3Z"/>
      <path d="M232.42,347.31h3l3.84,18.88h-2.62l-.86-4.81h-4.08l-.86,4.81h-2.62Zm-.29,11.87h3.32l-1.62-9.1h-.05Z"/>
      <path d="M239.06,347.31H248v2.2h-3.14v16.69H242.2V349.5h-3.14Z"/>
      <path d="M249.68,347.31h8.89v2.2h-3.14v16.69h-2.62V349.5h-3.14Z"/>
      <path d="M261,347.31h2.62v18.88H261Z"/>
      <path d="M270.39,347.31h3l3.84,18.88h-2.62l-.86-4.81h-4.08l-.86,4.81h-2.62Zm-.29,11.87h3.32l-1.62-9.1h-.05Z"/>
      <path d="M284.44,347.31h8.89v2.2h-3.14v16.69h-2.62V349.5h-3.14Z"/>
      <path d="M295.87,347.31H303v2.2h-4.5v5.91h4.24v2.2h-4.24V364H303v2.2h-7.11Z"/>
      <path d="M305.52,347.31h4.21c4.24,0,4.58,1.41,4.58,6.9v5.62c0,4.84-.86,6.36-5,6.36h-3.79ZM308.13,364h1.26c1.94,0,2.3-1,2.3-4.26v-6.49c0-2.8-.29-3.74-2.51-3.74h-1Z"/>
      <path d="M317.57,347.31h7.11v2.2h-4.5v5.91h4.24v2.2h-4.24V364h4.5v2.2h-7.11Z"/>
      <path d="M326.93,360.72h2.62v1.54c0,1.25.47,2,1.52,2,1.39,0,1.73-.94,1.73-2.17,0-1.6-.08-2.12-2.8-4.81-1.67-1.67-3.06-3.19-3.06-5.75,0-3.09,1.44-4.42,4.29-4.42a4.45,4.45,0,0,1,3.06,1,3,3,0,0,1,.76,2.41v1.78h-2.46v-1.49c0-1.07-.44-1.7-1.46-1.7s-1.57.6-1.57,2.07c0,1.28.26,2.07,2.67,4.58,2.56,2.67,3,3.58,3,5.86,0,3-1.15,4.66-4.26,4.66-2.41,0-4.05-1-4.05-3.37Z"/>
      <path d="M338,352.12c0-2.64.86-5,4.42-5,2.59,0,3.79,1.31,3.79,3.43v1.88h-2.46v-1.31c0-1.2-.42-2-1.52-2-1.36,0-1.62,1-1.62,3.24v9.26c0,2.22.71,2.62,1.54,2.62s1.6-.68,1.6-2.25v-1.31h2.46v2.09c0,2-.81,3.5-3.84,3.5-3.3,0-4.37-1.75-4.37-4.68Z"/>
      <path d="M348.93,347.31h2.62v8.11H355v-8.11h2.62v18.88H355v-8.58h-3.48v8.58h-2.62Z"/>
      <path d="M360.9,347.31h2.62v18.88H360.9Z"/>
      <path d="M381.55,352.7h2.17l2.75,13.48h-1.87l-.62-3.44h-2.91l-.62,3.44h-1.87Zm-.21,8.48h2.37l-1.16-6.5h0Z"/>
      <path d="M388.16,362.28H390v1.1c0,.9.34,1.46,1.08,1.46,1,0,1.23-.67,1.23-1.55,0-1.14-.06-1.51-2-3.44-1.2-1.2-2.19-2.28-2.19-4.11,0-2.2,1-3.16,3.06-3.16a3.18,3.18,0,0,1,2.19.75,2.17,2.17,0,0,1,.54,1.72v1.27H392.2v-1.06c0-.77-.32-1.21-1-1.21s-1.12.43-1.12,1.48.19,1.47,1.9,3.27,2.17,2.56,2.17,4.18c0,2.11-.82,3.33-3,3.33-1.72,0-2.9-.73-2.9-2.41Z"/>
      <path d="M396.08,362.28h1.87v1.1c0,.9.34,1.46,1.08,1.46,1,0,1.23-.67,1.23-1.55,0-1.14-.06-1.51-2-3.44-1.2-1.2-2.19-2.28-2.19-4.11,0-2.2,1-3.16,3.06-3.16a3.18,3.18,0,0,1,2.19.75,2.17,2.17,0,0,1,.54,1.72v1.27h-1.76v-1.06c0-.77-.32-1.21-1-1.21s-1.12.43-1.12,1.48.19,1.47,1.91,3.27S402,361.35,402,363c0,2.11-.82,3.33-3,3.33-1.72,0-2.89-.73-2.89-2.41Z"/>
      <path d="M404.15,352.7H406v13.48h-1.87Z"/>
      <path d="M408.15,362.28H410v1.1c0,.9.34,1.46,1.08,1.46,1,0,1.23-.67,1.23-1.55,0-1.14-.06-1.51-2-3.44-1.2-1.2-2.19-2.28-2.19-4.11,0-2.2,1-3.16,3.06-3.16a3.18,3.18,0,0,1,2.19.75,2.17,2.17,0,0,1,.54,1.72v1.27h-1.76v-1.06c0-.77-.32-1.21-1-1.21s-1.12.43-1.12,1.48.19,1.47,1.91,3.27,2.17,2.56,2.17,4.18c0,2.11-.82,3.33-3,3.33-1.72,0-2.89-.73-2.89-2.41Z"/>
      <path d="M415.7,352.7H422v1.57h-2.24v11.92h-1.87V354.27H415.7Z"/>
      <path d="M423.86,352.7h5.08v1.57h-3.21v4.22h3v1.57h-3v4.56h3.21v1.57h-5.08Z"/>
      <path d="M430.75,352.7h2.58l2.2,11.21h0V352.7h1.76v13.48h-2.69l-2.2-11.5h0v11.5h-1.64Z"/>
      <path d="M439.14,352.7h6.35v1.57h-2.24v11.92h-1.87V354.27h-2.24Z"/>
      <path d="M447.3,352.7h5.08v1.57h-3.21v4.22h3v1.57h-3v4.56h3.21v1.57H447.3Z"/>
      <path d="M458.62,356.14c0-1.89.62-3.55,3.16-3.55s3.17,1.25,3.17,3.34v6.82c0,1.89-.62,3.55-3.17,3.55-2.39,0-3.16-1.25-3.16-3.34Zm1.87,6.93c0,1.16.52,1.77,1.29,1.77s1.31-.62,1.31-1.77V356c0-1.33-.45-1.94-1.31-1.94s-1.29.62-1.29,1.94Z"/>
      <path d="M467.29,352.7h3.08c2.54,0,3,.69,3,3.81s-.49,3.81-3,3.81h-1.21v5.86h-1.87Zm1.87,6.05h1c1.27,0,1.4-.21,1.4-2.24s-.13-2.24-1.4-2.24h-1Z"/>
      <path d="M475.56,352.7h5.08v1.57h-3.21v4.22h3v1.57h-3v4.56h3.21v1.57h-5.08Z"/>
      <path d="M482.46,352.7h2.9c2.73,0,3,.73,3,3.68,0,1.81-.24,2.6-1.77,3.06v0c1.27.13,1.7.78,1.7,2.05v2.93a9.23,9.23,0,0,0,.11,1.72h-1.76a2.32,2.32,0,0,1-.22-1.21v-3c0-1.27-.22-1.61-1.46-1.61h-.64v5.86h-1.87Zm1.87,6.05h.49c1.48,0,1.68-.28,1.68-2.3s-.11-2.19-1.27-2.19h-.9Z"/>
      <path d="M493.21,352.7h2.17l2.75,13.48h-1.87l-.62-3.44h-2.91l-.62,3.44h-1.87Zm-.21,8.48h2.37l-1.16-6.5h0Z"/>
      <path d="M498,352.7h6.35v1.57h-2.24v11.92H500.2V354.27H498Z"/>
      <path d="M505.84,356.14c0-1.89.62-3.55,3.16-3.55s3.18,1.25,3.18,3.34v6.82c0,1.89-.62,3.55-3.18,3.55-2.39,0-3.16-1.25-3.16-3.34Zm1.87,6.93c0,1.16.52,1.77,1.29,1.77s1.31-.62,1.31-1.77V356c0-1.33-.45-1.94-1.31-1.94s-1.29.62-1.29,1.94Z"/>
      <path d="M514.51,352.7h2.89c2.73,0,3,.73,3,3.68,0,1.81-.24,2.6-1.77,3.06v0c1.27.13,1.7.78,1.7,2.05v2.93a9.31,9.31,0,0,0,.11,1.72h-1.75a2.31,2.31,0,0,1-.22-1.21v-3c0-1.27-.22-1.61-1.46-1.61h-.63v5.86h-1.87Zm1.87,6.05h.49c1.48,0,1.68-.28,1.68-2.3s-.11-2.19-1.27-2.19h-.9Z"/>
      <path d="M522.79,352.7h5.08v1.57h-3.21v4.22h3v1.57h-3v4.56h3.21v1.57h-5.08Z"/>
      <path d="M536.23,347.31h7.11v2.2h-4.5v5.91h4.24v2.2h-4.24v8.58h-2.62Z"/>
      <path d="M545.88,347.31h4.05c3.82,0,4.21,1,4.21,5.15,0,2.54-.34,3.63-2.48,4.29v.05c1.78.18,2.38,1.1,2.38,2.88v4.11a13,13,0,0,0,.16,2.41h-2.46a3.24,3.24,0,0,1-.31-1.7v-4.26c0-1.78-.31-2.25-2-2.25h-.89v8.21h-2.62Zm2.62,8.47h.68c2.07,0,2.35-.39,2.35-3.22s-.16-3.06-1.78-3.06H548.5Z"/>
      <path d="M560.94,347.31h3l3.84,18.88h-2.62l-.86-4.81h-4.08l-.86,4.81h-2.62Zm-.29,11.87H564l-1.62-9.1h-.05Z"/>
      <path d="M570.49,347.31h3.61L577.18,363h.05V347.31h2.46v18.88h-3.77l-3.09-16.11h-.05v16.11h-2.3Z"/>
      <path d="M582.75,352.12c0-2.64.86-5,4.42-5,2.59,0,3.79,1.31,3.79,3.43v1.88h-2.46v-1.31c0-1.2-.42-2-1.52-2-1.36,0-1.62,1-1.62,3.24v9.26c0,2.22.71,2.62,1.54,2.62s1.59-.68,1.59-2.25v-1.31H591v2.09c0,2-.81,3.5-3.84,3.5-3.3,0-4.37-1.75-4.37-4.68Z"/>
      <path d="M593.66,347.31h7.11v2.2h-4.5v5.91h4.24v2.2h-4.24V364h4.5v2.2h-7.11Z"/>
      <path d="M603,360.72h2.62v1.54c0,1.25.47,2,1.52,2,1.39,0,1.73-.94,1.73-2.17,0-1.6-.08-2.12-2.8-4.81-1.67-1.67-3.06-3.19-3.06-5.75,0-3.09,1.44-4.42,4.29-4.42a4.45,4.45,0,0,1,3.06,1,3,3,0,0,1,.76,2.41v1.78h-2.46v-1.49c0-1.07-.44-1.7-1.46-1.7s-1.57.6-1.57,2.07c0,1.28.26,2.07,2.67,4.58,2.56,2.67,3,3.58,3,5.86,0,3-1.15,4.66-4.26,4.66-2.41,0-4.05-1-4.05-3.37Z"/>
      <path d="M614.11,352.12c0-2.64.86-5,4.42-5,2.59,0,3.79,1.31,3.79,3.43v1.88h-2.46v-1.31c0-1.2-.42-2-1.52-2-1.36,0-1.62,1-1.62,3.24v9.26c0,2.22.71,2.62,1.54,2.62s1.59-.68,1.59-2.25v-1.31h2.46v2.09c0,2-.81,3.5-3.84,3.5-3.3,0-4.37-1.75-4.37-4.68Z"/>
      <path d="M624.94,352.12c0-2.64.86-5,4.42-5,3.37,0,4.45,1.75,4.45,4.68v9.55c0,2.64-.86,5-4.45,5-3.35,0-4.42-1.75-4.42-4.68Zm2.62,9.7c0,1.62.73,2.48,1.8,2.48s1.83-.86,1.83-2.48v-9.91c0-1.86-.63-2.72-1.83-2.72s-1.8.86-1.8,2.72Z"/>
      <path d="M641.57,347.31h8.89v2.2h-3.14v16.69h-2.62V349.5h-3.14Z"/>
      <path d="M653,347.31H657c3.82,0,4.21,1,4.21,5.15,0,2.54-.34,3.63-2.48,4.29v.05c1.78.18,2.38,1.1,2.38,2.88v4.11a13,13,0,0,0,.16,2.41h-2.46a3.24,3.24,0,0,1-.31-1.7v-4.26c0-1.78-.31-2.25-2-2.25h-.89v8.21H653Zm2.62,8.47h.68c2.07,0,2.35-.39,2.35-3.22s-.16-3.06-1.78-3.06h-1.26Z"/>
      <path d="M664.5,347.31h2.62v18.88H664.5Z"/>
      <path d="M670.1,360.72h2.62v1.54c0,1.25.47,2,1.52,2,1.39,0,1.73-.94,1.73-2.17,0-1.6-.08-2.12-2.8-4.81-1.67-1.67-3.06-3.19-3.06-5.75,0-3.09,1.44-4.42,4.29-4.42a4.45,4.45,0,0,1,3.06,1,3,3,0,0,1,.76,2.41v1.78h-2.46v-1.49c0-1.07-.44-1.7-1.46-1.7s-1.57.6-1.57,2.07c0,1.28.26,2.07,2.67,4.58,2.56,2.67,3,3.58,3,5.86,0,3-1.15,4.66-4.26,4.66-2.41,0-4.05-1-4.05-3.37Z"/>
      <path d="M681.4,347.31H684v18.88H681.4Z"/>
      <path d="M703.91,356.27v-.69c0-1-.47-1.53-1.2-1.53s-1.29.78-1.29,2.22v6.8c0,1.08.52,1.77,1.29,1.77a5.48,5.48,0,0,0,1.2-.13v-4h-1.23v-1.57h3.1V366a15.61,15.61,0,0,1-3.08.34c-2.37,0-3.14-1.25-3.14-3.34v-6.82c0-2.52.77-3.55,3.17-3.55,2,0,3,.73,3,2.45v1.23Z"/>
      <path d="M710.65,352.7h2.17l2.75,13.48H713.7l-.62-3.44h-2.91l-.62,3.44h-1.87Zm-.21,8.48h2.37l-1.16-6.5h0Z"/>
      <path d="M717.47,352.7h5.08v1.57h-3.21v4.22h3v1.57h-3v6.13h-1.87Z"/>
      <path d="M724.37,352.7h5.08v1.57h-3.21v4.22h3v1.57h-3v6.13h-1.87Z"/>
      <path d="M731.26,352.7h5.08v1.57h-3.21v4.22h3v1.57h-3v4.56h3.21v1.57h-5.08Z"/>
      <path d="M738.15,352.7H741c2.73,0,3,.73,3,3.68,0,1.81-.24,2.6-1.77,3.06v0c1.27.13,1.7.78,1.7,2.05v2.93a9.31,9.31,0,0,0,.11,1.72h-1.75a2.31,2.31,0,0,1-.22-1.21v-3c0-1.27-.22-1.61-1.46-1.61H740v5.86h-1.87Zm1.87,6.05h.49c1.48,0,1.68-.28,1.68-2.3s-.11-2.19-1.27-2.19H740Z"/>
      <path d="M751.2,347.31h8.89v2.2H757v16.69h-2.62V349.5H751.2Z"/>
      <path d="M762.24,352.12c0-2.64.86-5,4.42-5,3.37,0,4.45,1.75,4.45,4.68v9.55c0,2.64-.86,5-4.45,5-3.35,0-4.42-1.75-4.42-4.68Zm2.62,9.7c0,1.62.73,2.48,1.8,2.48s1.83-.86,1.83-2.48v-9.91c0-1.86-.63-2.72-1.83-2.72s-1.8.86-1.8,2.72Z"/>
      <path d="M774.37,347.31h4.16l2.41,14.38H781l2.41-14.38h4.05v18.88H785v-17h-.05l-2.67,17h-2.62l-2.93-17h-.05v17h-2.3Z"/>
      <path d="M790.79,347.31H795l2.41,14.38h.05l2.41-14.38h4.05v18.88h-2.46v-17h-.05l-2.67,17h-2.62l-2.93-17h-.05v17h-2.3Z"/>
      <path d="M810.7,347.31h3l3.84,18.88H815l-.86-4.81H810l-.86,4.81h-2.62Zm-.29,11.87h3.32l-1.62-9.1h-.05Z"/>
      <path d="M820,360.72h2.62v1.54c0,1.25.47,2,1.52,2,1.39,0,1.73-.94,1.73-2.17,0-1.6-.08-2.12-2.8-4.81-1.67-1.67-3.06-3.19-3.06-5.75,0-3.09,1.44-4.42,4.29-4.42a4.45,4.45,0,0,1,3.06,1,3,3,0,0,1,.76,2.41v1.78H825.6v-1.49c0-1.07-.44-1.7-1.46-1.7s-1.57.6-1.57,2.07c0,1.28.26,2.07,2.67,4.58,2.56,2.67,3,3.58,3,5.86,0,3-1.15,4.66-4.26,4.66-2.41,0-4.05-1-4.05-3.37Z"/>
      <path d="M831.25,352.12c0-2.64.86-5,4.42-5,3.37,0,4.45,1.75,4.45,4.68v9.55c0,2.64-.86,5-4.45,5-3.35,0-4.42-1.75-4.42-4.68Zm2.62,9.7c0,1.62.73,2.48,1.8,2.48s1.83-.86,1.83-2.48v-9.91c0-1.86-.63-2.72-1.83-2.72s-1.8.86-1.8,2.72Z"/>
      <path d="M849.37,360.72H852v1.54c0,1.25.47,2,1.52,2,1.39,0,1.73-.94,1.73-2.17,0-1.6-.08-2.12-2.8-4.81-1.67-1.67-3.06-3.19-3.06-5.75,0-3.09,1.44-4.42,4.29-4.42a4.45,4.45,0,0,1,3.06,1,3,3,0,0,1,.76,2.41v1.78H855v-1.49c0-1.07-.44-1.7-1.46-1.7s-1.57.6-1.57,2.07c0,1.28.26,2.07,2.67,4.58,2.56,2.67,3,3.58,3,5.86,0,3-1.15,4.66-4.26,4.66-2.41,0-4.05-1-4.05-3.37Z"/>
      <path d="M864.23,347.31h3l3.84,18.88h-2.62l-.86-4.81h-4.08l-.86,4.81h-2.62Zm-.29,11.87h3.32l-1.62-9.1h-.05Z"/>
      <path d="M873.77,347.31h2.62V364h4.39v2.2h-7Z"/>
      <path d="M880,347.31h2.62l2.72,15h.05l2.72-15h2.62l-3.84,18.88h-3Z"/>
      <path d="M892.81,352.12c0-2.64.86-5,4.42-5,3.37,0,4.45,1.75,4.45,4.68v9.55c0,2.64-.86,5-4.45,5-3.35,0-4.42-1.75-4.42-4.68Zm2.62,9.7c0,1.62.73,2.48,1.8,2.48s1.83-.86,1.83-2.48v-9.91c0-1.86-.63-2.72-1.83-2.72s-1.8.86-1.8,2.72Z"/>
      <path d="M904.95,347.31h3.61L911.64,363h.05V347.31h2.46v18.88h-3.77l-3.09-16.11h-.05v16.11h-2.3Z"/>
      <path d="M917.42,347.31H920v18.88h-2.62Z"/>
      <path d="M259.6,384c0-1.89.62-3.55,3.16-3.55,1.85,0,2.71.93,2.71,2.45v1.34H263.7v-.93c0-.86-.3-1.4-1.08-1.4-1,0-1.16.69-1.16,2.32v6.61c0,1.59.5,1.87,1.1,1.87s1.14-.49,1.14-1.61v-.93h1.76v1.49c0,1.42-.58,2.5-2.75,2.5-2.35,0-3.12-1.25-3.12-3.34Z"/>
      <path d="M267.33,384c0-1.89.62-3.55,3.16-3.55s3.17,1.25,3.17,3.34v6.82c0,1.89-.62,3.55-3.17,3.55-2.39,0-3.16-1.25-3.16-3.34Zm1.87,6.93c0,1.16.52,1.77,1.29,1.77s1.31-.62,1.31-1.77v-7.08c0-1.33-.45-1.94-1.31-1.94s-1.29.62-1.29,1.94Z"/>
      <path d="M276,380.53h2.58l2.2,11.21h0V380.53h1.76V394h-2.69l-2.2-11.5h0V394H276Z"/>
      <path d="M291.52,375.14h7.11v2.2h-4.5v5.91h4.24v2.2h-4.24V394h-2.62Z"/>
      <path d="M301.17,375.14h4.05c3.82,0,4.21,1,4.21,5.15,0,2.54-.34,3.63-2.48,4.29v.05c1.78.18,2.38,1.1,2.38,2.88v4.11a12.93,12.93,0,0,0,.16,2.41H307a3.24,3.24,0,0,1-.31-1.7v-4.26c0-1.78-.31-2.25-2-2.25h-.89V394h-2.62Zm2.62,8.47h.68c2.07,0,2.35-.39,2.35-3.22s-.16-3.06-1.78-3.06h-1.26Z"/>
      <path d="M316.23,375.14h3L323.11,394h-2.62l-.86-4.81h-4.08l-.86,4.81h-2.62ZM315.94,387h3.32l-1.62-9.1h-.05Z"/>
      <path d="M325.77,375.14h3.61l3.09,15.69h.05V375.14H335V394h-3.77l-3.09-16.11h-.05V394h-2.3Z"/>
      <path d="M338,379.95c0-2.64.86-5,4.42-5,2.59,0,3.79,1.31,3.79,3.43v1.88h-2.46V379c0-1.2-.42-2-1.52-2-1.36,0-1.62,1-1.62,3.24v9.26c0,2.22.71,2.62,1.54,2.62s1.6-.68,1.6-2.25v-1.31h2.46v2.09c0,2-.81,3.5-3.84,3.5-3.3,0-4.37-1.75-4.37-4.68Z"/>
      <path d="M348.94,375.14h7.11v2.2h-4.5v5.91h4.24v2.2h-4.24v6.38h4.5V394h-7.11Z"/>
      <path d="M358.31,388.55h2.62v1.54c0,1.25.47,2,1.52,2,1.39,0,1.73-.94,1.73-2.17,0-1.6-.08-2.12-2.8-4.81-1.67-1.67-3.06-3.19-3.06-5.75,0-3.09,1.44-4.42,4.29-4.42a4.45,4.45,0,0,1,3.06,1,3,3,0,0,1,.76,2.41v1.78H364v-1.49c0-1.07-.44-1.7-1.46-1.7s-1.57.6-1.57,2.07c0,1.28.26,2.07,2.67,4.58,2.56,2.67,3,3.58,3,5.86,0,3-1.15,4.66-4.26,4.66-2.41,0-4.05-1-4.05-3.37Z"/>
      <path d="M369.4,379.95c0-2.64.86-5,4.42-5,2.59,0,3.79,1.31,3.79,3.43v1.88h-2.46V379c0-1.2-.42-2-1.52-2-1.36,0-1.62,1-1.62,3.24v9.26c0,2.22.71,2.62,1.54,2.62s1.6-.68,1.6-2.25v-1.31h2.46v2.09c0,2-.81,3.5-3.84,3.5-3.3,0-4.37-1.75-4.37-4.68Z"/>
      <path d="M383.46,375.14h3L390.34,394h-2.62l-.86-4.81h-4.08l-.86,4.81h-2.62ZM383.18,387h3.32l-1.62-9.1h-.05Z"/>
      <path d="M399,379.95c0-2.64.86-5,4.42-5,2.59,0,3.79,1.31,3.79,3.43v1.88h-2.46V379c0-1.2-.42-2-1.52-2-1.36,0-1.62,1-1.62,3.24v9.26c0,2.22.71,2.62,1.54,2.62s1.6-.68,1.6-2.25v-1.31h2.46v2.09c0,2-.81,3.5-3.84,3.5-3.3,0-4.37-1.75-4.37-4.68Z"/>
      <path d="M413.07,375.14h3L419.95,394h-2.62l-.86-4.81h-4.08l-.86,4.81h-2.62ZM412.78,387h3.32l-1.62-9.1h-.05Z"/>
      <path d="M422.33,388.55h2.62v1.54c0,1.25.47,2,1.52,2,1.39,0,1.73-.94,1.73-2.17,0-1.6-.08-2.12-2.8-4.81-1.67-1.67-3.06-3.19-3.06-5.75,0-3.09,1.44-4.42,4.29-4.42a4.45,4.45,0,0,1,3.06,1,3,3,0,0,1,.76,2.41v1.78H428v-1.49c0-1.07-.44-1.7-1.46-1.7s-1.57.6-1.57,2.07c0,1.28.26,2.07,2.67,4.58,2.56,2.67,3,3.58,3,5.86,0,3-1.15,4.66-4.26,4.66-2.41,0-4.05-1-4.05-3.37Z"/>
      <path d="M433.41,379.95c0-2.64.86-5,4.42-5,2.59,0,3.79,1.31,3.79,3.43v1.88h-2.46V379c0-1.2-.42-2-1.52-2-1.36,0-1.62,1-1.62,3.24v9.26c0,2.22.71,2.62,1.54,2.62s1.6-.68,1.6-2.25v-1.31h2.46v2.09c0,2-.81,3.5-3.84,3.5-3.3,0-4.37-1.75-4.37-4.68Z"/>
      <path d="M444.32,375.14h7.11v2.2h-4.5v5.91h4.24v2.2h-4.24v6.38h4.5V394h-7.11Z"/>
      <path d="M454,375.14h2.62v16.69H461V394h-7Z"/>
      <path d="M463.62,375.14h2.62v16.69h4.39V394h-7Z"/>
      <path d="M476.75,375.14h3L483.63,394H481l-.86-4.81h-4.08L475.2,394h-2.62ZM476.46,387h3.32l-1.62-9.1h-.05Z"/>
      <path d="M496.79,390h0V387.2h1.57v2.71a4.55,4.55,0,0,1-.43,2.32l.82,1.79h-1.87l-.17-.39a3.65,3.65,0,0,1-1.89.5c-2.15,0-2.63-1.25-2.63-3.46,0-1.61.09-3.29,1.51-4a6.88,6.88,0,0,1-1-3.34c0-1.85,1-2.82,2.37-2.82,1.7,0,2.39,1,2.39,2.56a4.94,4.94,0,0,1-1.94,3.85Zm-2.46-1.92a4.64,4.64,0,0,0-.34,2.45c0,1.53.22,2.24,1,2.24a1.3,1.3,0,0,0,1.1-.56Zm0-4.84a5.27,5.27,0,0,0,.62,2.46,3.61,3.61,0,0,0,1-2.56c0-.82-.26-1.29-.8-1.29S494.31,382.38,494.31,383.26Z"/>
      <path d="M510,375.14h3L516.85,394h-2.62l-.86-4.81h-4.08l-.86,4.81h-2.62ZM509.68,387H513l-1.62-9.1h-.05Z"/>
      <path d="M519.51,375.14h2.62v16.69h4.39V394h-7Z"/>
      <path d="M529.16,375.14h7.11v2.2h-4.5v5.91H536v2.2h-4.24v6.38h4.5V394h-7.11Z"/>
      <path d="M542.13,384.21l-3.79-9.08h2.77l2.46,6.64,2.46-6.64h2.62l-3.77,9.34,3.9,9.55H546l-2.56-6.93L540.67,394h-2.62Z"/>
      <path d="M554.84,375.14h3L561.72,394h-2.62l-.86-4.81h-4.08L553.3,394h-2.62ZM554.56,387h3.32l-1.62-9.1h-.05Z"/>
      <path d="M564.39,375.14H568l3.09,15.69h.05V375.14h2.46V394h-3.77l-3.09-16.11h-.05V394h-2.3Z"/>
      <path d="M576.94,375.14h4.21c4.24,0,4.58,1.41,4.58,6.9v5.62c0,4.84-.86,6.36-5,6.36h-3.79Zm2.62,16.69h1.26c1.93,0,2.3-1,2.3-4.26v-6.49c0-2.8-.29-3.74-2.51-3.74h-1Z"/>
      <path d="M589,375.14h7.11v2.2h-4.5v5.91h4.24v2.2h-4.24v6.38h4.5V394H589Z"/>
      <path d="M598.65,375.14h4.05c3.82,0,4.21,1,4.21,5.15,0,2.54-.34,3.63-2.48,4.29v.05c1.78.18,2.38,1.1,2.38,2.88v4.11A13,13,0,0,0,607,394H604.5a3.24,3.24,0,0,1-.31-1.7v-4.26c0-1.78-.31-2.25-2-2.25h-.89V394h-2.62Zm2.62,8.47h.68c2.07,0,2.35-.39,2.35-3.22s-.16-3.06-1.78-3.06h-1.26Z"/>
      <path d="M616.51,375.14h4.32c3.56,0,4.24,1,4.24,5.33s-.68,5.34-4.24,5.34h-1.7V394h-2.62Zm2.62,8.47h1.36c1.78,0,2-.29,2-3.14s-.18-3.14-2-3.14h-1.36Z"/>
      <path d="M628,375.14h2.62V394H628Z"/>
      <path d="M633.9,375.14H641v2.2h-4.5v5.91h4.24v2.2h-4.24v6.38H641V394H633.9Z"/>
      <path d="M643.55,375.14h4.05c3.82,0,4.21,1,4.21,5.15,0,2.54-.34,3.63-2.48,4.29v.05c1.78.18,2.38,1.1,2.38,2.88v4.11a13,13,0,0,0,.16,2.41h-2.46a3.24,3.24,0,0,1-.31-1.7v-4.26c0-1.78-.31-2.25-2-2.25h-.89V394h-2.62Zm2.62,8.47h.68c2.07,0,2.35-.39,2.35-3.22s-.16-3.06-1.78-3.06h-1.26Z"/>
      <path d="M661.23,380.13v-1c0-1.33-.65-2.14-1.67-2.14-1.2,0-1.8,1.1-1.8,3.11v9.52c0,1.52.73,2.48,1.8,2.48a7.58,7.58,0,0,0,1.67-.18v-5.54H659.5v-2.2h4.34v9.49a22,22,0,0,1-4.32.47c-3.32,0-4.39-1.75-4.39-4.68v-9.55c0-3.53,1.07-5,4.45-5,2.8,0,4.26,1,4.26,3.43v1.73Z"/>
      <path d="M667.19,375.14h7.11v2.2h-4.5v5.91H674v2.2H669.8v6.38h4.5V394h-7.11Z"/>
      <path d="M676.84,375.14h3.61l3.09,15.69h.05V375.14H686V394h-3.77l-3.09-16.11h-.05V394h-2.3Z"/>
      <path d="M688.58,375.14h8.89v2.2h-3.14V394h-2.62V377.33h-3.14Z"/>
      <path d="M699.93,375.14h2.62V394h-2.62Z"/>
      <path d="M705.81,375.14h2.62v16.69h4.39V394h-7Z"/>
      <path d="M715.39,375.14H718V394h-2.62Z"/>
    </g>
  </g>
</svg>
