<svg class="logo" xmlns="http://www.w3.org/2000/svg" width="1024" height="412" viewBox="0 0 1024 412">
  <g>
    <g class="author">
      <path d="M260.88,311.29c0,1.86-.73,3.74-3.75,3.74s-3.77-1.88-3.77-3.74V298.91h2.22v12.76c0,1.09.4,1.64,1.55,1.64s1.53-.55,1.53-1.64V298.91h2.22Z"/>
      <path d="M263.65,298.91h3.06l2.62,13.29h0V298.91h2.08v16h-3.19l-2.62-13.65h0V314.9h-2Z"/>
      <path d="M277.25,298.91h2.57l3.26,16h-2.22l-.73-4.08h-3.46l-.73,4.08h-2.22ZM277,309h2.82l-1.38-7.71h0Z"/>
      <path d="M290.67,298.91h3.66c3,0,3.59.82,3.59,4.52s-.58,4.52-3.59,4.52h-1.44v7h-2.22Zm2.22,7.18H294c1.51,0,1.66-.24,1.66-2.66s-.16-2.66-1.66-2.66h-1.15Z"/>
      <path d="M300.5,298.91h3.44c3.24,0,3.57.86,3.57,4.36,0,2.15-.29,3.08-2.11,3.63v0c1.51.16,2,.93,2,2.44v3.48a10.94,10.94,0,0,0,.13,2h-2.09a2.75,2.75,0,0,1-.27-1.44v-3.61c0-1.51-.27-1.91-1.73-1.91h-.75v7H300.5Zm2.22,7.18h.58c1.75,0,2-.33,2-2.72s-.13-2.59-1.51-2.59h-1.06Z"/>
      <path d="M310.26,303c0-2.24.73-4.21,3.75-4.21,2.86,0,3.77,1.48,3.77,4v8.09c0,2.24-.73,4.21-3.77,4.21-2.84,0-3.75-1.48-3.75-4Zm2.22,8.22c0,1.37.62,2.1,1.53,2.1s1.55-.73,1.55-2.1v-8.4c0-1.57-.53-2.3-1.55-2.3s-1.53.73-1.53,2.3Z"/>
      <path d="M320.55,298.91h3.57c3.59,0,3.88,1.2,3.88,5.85v4.76c0,4.1-.73,5.38-4.24,5.38h-3.22ZM322.77,313h1.06c1.64,0,2-.86,2-3.61v-5.49c0-2.37-.24-3.17-2.13-3.17h-.89Z"/>
      <path d="M338.23,311.29c0,1.86-.73,3.74-3.75,3.74s-3.77-1.88-3.77-3.74V298.91h2.22v12.76c0,1.09.4,1.64,1.55,1.64s1.53-.55,1.53-1.64V298.91h2.22Z"/>
      <path d="M340.43,312.89l5-12.12H341v-1.86h6.59v1.86l-5,12.27h5.1v1.86h-7.32Z"/>
      <path d="M349.94,298.91h2.22v16h-2.22Z"/>
      <path d="M354.87,303c0-2.24.73-4.21,3.75-4.21,2.86,0,3.77,1.48,3.77,4v8.09c0,2.24-.73,4.21-3.77,4.21-2.84,0-3.75-1.48-3.75-4Zm2.22,8.22c0,1.37.62,2.1,1.53,2.1s1.55-.73,1.55-2.1v-8.4c0-1.57-.53-2.3-1.55-2.3s-1.53.73-1.53,2.3Z"/>
      <path d="M365.16,298.91h3.06l2.62,13.29h0V298.91H373v16h-3.19l-2.62-13.65h0V314.9h-2Z"/>
      <path d="M375.81,298.91h6v1.86H378v5h3.59v1.86H378V313h3.82v1.86h-6Z"/>
      <path d="M392.4,292.51h3.11V312.3h5.22v2.61H392.4Z"/>
      <path d="M408,292.51h3.6l4.56,22.4h-3.11l-1-5.71h-4.84l-1,5.71h-3.11Zm-.34,14.08h3.94l-1.93-10.8h-.06Z"/>
      <path d="M419.33,292.51h4.29l3.66,18.61h.06V292.51h2.92v22.4h-4.47l-3.66-19.11h-.06V314.9h-2.73Z"/>
      <path d="M434.23,292.51h5c5,0,5.43,1.68,5.43,8.19v6.67c0,5.74-1,7.54-5.93,7.54h-4.5Zm3.11,19.79h1.49c2.3,0,2.73-1.21,2.73-5.06v-7.69c0-3.32-.34-4.44-3-4.44h-1.24Z"/>
      <path d="M456,292.51h3.11v9.62h4.13v-9.62h3.11v22.4h-3.11V304.73h-4.13V314.9H456Z"/>
      <path d="M470.23,298.21c0-3.13,1-5.89,5.25-5.89,4,0,5.28,2.08,5.28,5.55V309.2c0,3.13-1,5.89-5.28,5.89-4,0-5.25-2.08-5.25-5.55Zm3.11,11.51c0,1.92.87,2.95,2.14,2.95s2.17-1,2.17-2.95V298c0-2.2-.75-3.23-2.17-3.23s-2.14,1-2.14,3.23Z"/>
      <path d="M497.11,310.16h0v-3.35H499V310a5.4,5.4,0,0,1-.51,2.75l1,2.13h-2.22l-.2-.47a4.35,4.35,0,0,1-2.24.6c-2.55,0-3.13-1.48-3.13-4.1,0-1.91.11-3.9,1.8-4.72a8.15,8.15,0,0,1-1.2-4c0-2.19,1.15-3.35,2.82-3.35,2,0,2.84,1.17,2.84,3a5.86,5.86,0,0,1-2.31,4.56Zm-2.93-2.28c-.31.44-.4,1.2-.4,2.9s.27,2.66,1.2,2.66a1.54,1.54,0,0,0,1.31-.66Zm0-5.74a6.26,6.26,0,0,0,.73,2.92,4.28,4.28,0,0,0,1.2-3c0-1-.31-1.53-1-1.53S494.16,301.1,494.16,302.14Z"/>
      <path d="M507.64,292.51H513c3.82,0,4.47,1.33,4.47,5.43,0,4.4-.71,5.12-2.83,5.4v.06c2.48.46,3,1.3,3,5.12,0,4.84-.62,6.39-5.15,6.39h-4.88Zm3.11,9.62h1.8c1.86,0,2-.37,2-4,0-2.54-.4-3.16-2.39-3.16h-1.46Zm0,10.36h1.93c1.77,0,2.08-.53,2.08-4.06,0-3.38-.28-3.88-2-3.88h-2Z"/>
      <path d="M521.3,292.51h3.11v22.4H521.3Z"/>
      <path d="M527.48,312.08l7-17h-6.12v-2.61h9.22v2.61l-7,17.19h7.14v2.61H527.48Z"/>
      <path d="M545,292.51h3.6l4.56,22.4h-3.11l-1-5.71h-4.84l-1,5.71h-3.11Zm-.34,14.08h3.94l-1.93-10.8h-.06Z"/>
      <path d="M556.36,292.51h4.81c4.53,0,5,1.21,5,6.11,0,3-.4,4.31-2.95,5.09v.06c2.11.22,2.83,1.3,2.83,3.41v4.87a15.34,15.34,0,0,0,.19,2.85h-2.92a3.84,3.84,0,0,1-.37-2v-5.06c0-2.11-.37-2.67-2.42-2.67h-1.06v9.74h-3.11Zm3.11,10.05h.81c2.45,0,2.79-.47,2.79-3.82s-.19-3.63-2.11-3.63h-1.49Z"/>
      <path d="M570.12,292.51h4.81c4.53,0,5,1.21,5,6.11,0,3-.4,4.31-2.95,5.09v.06c2.11.22,2.83,1.3,2.83,3.41v4.87a15.34,15.34,0,0,0,.19,2.85h-2.92a3.84,3.84,0,0,1-.37-2v-5.06c0-2.11-.37-2.67-2.42-2.67h-1.06v9.74h-3.11Zm3.11,10.05H574c2.45,0,2.79-.47,2.79-3.82s-.19-3.63-2.11-3.63h-1.49Z"/>
      <path d="M583.88,292.51h8.45v2.61H587v7h5v2.61h-5v7.57h5.34v2.61h-8.45Z"/>
      <path d="M602.79,292.51h3.11V312.3h5.22v2.61h-8.32Z"/>
      <path d="M614.15,298.21c0-3.13,1-5.89,5.25-5.89,4,0,5.28,2.08,5.28,5.55V309.2c0,3.13-1,5.89-5.28,5.89-4,0-5.25-2.08-5.25-5.55Zm3.11,11.51c0,1.92.87,2.95,2.14,2.95s2.17-1,2.17-2.95V298c0-2.2-.75-3.23-2.17-3.23s-2.14,1-2.14,3.23Z"/>
      <path d="M626.92,292.51H630l3.23,17.81h.06l3.23-17.81h3.11l-4.56,22.4h-3.6Z"/>
      <path d="M642.72,292.51h8.45v2.61h-5.34v7h5v2.61h-5v7.57h5.34v2.61h-8.45Z"/>
      <path d="M659.52,292.51h10.56v2.61h-3.73V314.9h-3.11V295.11h-3.73Z"/>
      <path d="M673.1,292.51h4.81c4.53,0,5,1.21,5,6.11,0,3-.4,4.31-2.95,5.09v.06c2.11.22,2.83,1.3,2.83,3.41v4.87a15.34,15.34,0,0,0,.19,2.85h-2.92a3.84,3.84,0,0,1-.37-2v-5.06c0-2.11-.37-2.67-2.42-2.67H676.2v9.74H673.1Zm3.11,10.05H677c2.45,0,2.79-.47,2.79-3.82s-.19-3.63-2.11-3.63H676.2Z"/>
      <path d="M686.76,292.51h3.11v22.4h-3.11Z"/>
      <path d="M697.88,292.51h3.6L706,314.9h-3.11l-1-5.71h-4.84l-1,5.71h-3.11Zm-.34,14.08h3.94l-1.93-10.8h-.06Z"/>
      <path d="M709.21,292.51h4.29l3.66,18.61h.06V292.51h2.92v22.4h-4.47L712,295.8h-.06V314.9h-2.73Z"/>
      <path d="M731.35,298.43v-1.15c0-1.58-.78-2.54-2-2.54-1.43,0-2.14,1.3-2.14,3.69v11.29c0,1.8.87,2.95,2.14,2.95a9.07,9.07,0,0,0,2-.22v-6.58h-2v-2.61h5.15v11.26a26.1,26.1,0,0,1-5.12.56c-3.94,0-5.22-2.08-5.22-5.55V298.21c0-4.19,1.27-5.89,5.28-5.89,3.32,0,5.06,1.21,5.06,4.06v2Z"/>
      <path d="M738.43,292.51h3.11V312.3h5.22v2.61h-8.32Z"/>
      <path d="M749.89,292.51h8.45v2.61H753v7h5v2.61h-5v7.57h5.34v2.61h-8.45Z"/>
      <path d="M761,308.42h3.11v1.83c0,1.49.56,2.42,1.8,2.42,1.65,0,2-1.12,2-2.58,0-1.89-.09-2.51-3.32-5.71-2-2-3.63-3.79-3.63-6.82,0-3.66,1.71-5.24,5.09-5.24a5.29,5.29,0,0,1,3.63,1.24,3.59,3.59,0,0,1,.9,2.85v2.11h-2.92v-1.77c0-1.27-.53-2-1.74-2s-1.86.71-1.86,2.45c0,1.52.31,2.45,3.17,5.43,3,3.16,3.6,4.25,3.6,6.95,0,3.51-1.37,5.52-5.06,5.52-2.86,0-4.81-1.21-4.81-4Z"/>
      <path d="M82.56,329.79H86c3.24,0,3.57.86,3.57,4.36,0,2.15-.29,3.08-2.11,3.63v0c1.51.16,2,.93,2,2.44v3.48a10.94,10.94,0,0,0,.13,2H87.53a2.75,2.75,0,0,1-.27-1.44v-3.61c0-1.51-.27-1.91-1.73-1.91h-.75v7H82.56ZM84.78,337h.58c1.75,0,2-.33,2-2.72s-.13-2.59-1.51-2.59H84.78Z"/>
      <path d="M92.39,329.79h6v1.86H94.61v5H98.2v1.86H94.61v5.41h3.82v1.86h-6Z"/>
      <path d="M105.74,334v-.82c0-1.13-.55-1.82-1.42-1.82-1,0-1.53.93-1.53,2.64v8.07c0,1.29.62,2.1,1.53,2.1a6.47,6.47,0,0,0,1.42-.15v-4.7h-1.46v-1.86H108v8a18.66,18.66,0,0,1-3.66.4c-2.82,0-3.73-1.48-3.73-4v-8.09c0-3,.91-4.21,3.77-4.21,2.37,0,3.62.86,3.62,2.9V334Z"/>
      <path d="M110.73,329.79H113v16h-2.22Z"/>
      <path d="M118.67,329.79h2.57l3.26,16h-2.22l-.73-4.08H118.1l-.73,4.08h-2.22Zm-.24,10.06h2.82l-1.38-7.71h0Z"/>
      <path d="M132.09,329.79h3.57c3.59,0,3.88,1.2,3.88,5.85v4.76c0,4.1-.73,5.38-4.24,5.38h-3.22Zm2.22,14.14h1.06c1.64,0,2-.86,2-3.61v-5.49c0-2.37-.24-3.17-2.13-3.17h-.89Z"/>
      <path d="M142.25,329.79h2.22v16h-2.22Z"/>
      <path d="M152.9,323.39h5c5,0,5.43,1.68,5.43,8.19v6.67c0,5.74-1,7.54-5.93,7.54h-4.5ZM156,343.18h1.49c2.3,0,2.73-1.21,2.73-5.06v-7.69c0-3.32-.34-4.44-3-4.44H156Z"/>
      <path d="M170.78,323.39h3.6l4.56,22.4h-3.11l-1-5.71H170l-1,5.71h-3.11Zm-.34,14.08h3.94l-1.93-10.8h-.06Z"/>
      <path d="M182.12,323.39h4.29L190.07,342h.06V323.39h2.92v22.4h-4.47l-3.66-19.11h-.06v19.11h-2.73Z"/>
      <path d="M196.93,323.39H200v22.4h-3.11Z"/>
      <path d="M203.92,323.39h8.45V326H207v7h5v2.61h-5v7.57h5.34v2.61h-8.45Z"/>
      <path d="M215.38,323.39h3.11v19.79h5.22v2.61h-8.32Z"/>
      <path d="M234.29,323.39h5.4c3.82,0,4.47,1.33,4.47,5.43,0,4.4-.71,5.12-2.83,5.4v.06c2.48.46,3,1.3,3,5.12,0,4.84-.62,6.39-5.15,6.39h-4.88ZM237.4,333h1.8c1.86,0,2-.37,2-4,0-2.54-.4-3.16-2.39-3.16H237.4Zm0,10.36h1.93c1.77,0,2.08-.53,2.08-4.06,0-3.38-.28-3.88-2-3.88h-2Z"/>
      <path d="M248,323.39h8.45V326h-5.34v7h5v2.61h-5v7.57h5.34v2.61H248Z"/>
      <path d="M259.51,323.39h5c5,0,5.43,1.68,5.43,8.19v6.67c0,5.74-1,7.54-5.93,7.54h-4.5Zm3.11,19.79h1.49c2.3,0,2.73-1.21,2.73-5.06v-7.69c0-3.32-.34-4.44-3-4.44h-1.24Z"/>
      <path d="M284.26,340.73c0,2.61-1,5.24-5.25,5.24s-5.28-2.64-5.28-5.24V323.39h3.11v17.87c0,1.52.56,2.3,2.17,2.3s2.14-.78,2.14-2.3V323.39h3.11Z"/>
      <path d="M287.8,339.3h3.11v1.83c0,1.49.56,2.42,1.8,2.42,1.65,0,2-1.12,2-2.58,0-1.89-.09-2.51-3.32-5.71-2-2-3.63-3.79-3.63-6.82,0-3.66,1.71-5.24,5.09-5.24a5.29,5.29,0,0,1,3.63,1.24,3.59,3.59,0,0,1,.9,2.85v2.11h-2.92v-1.77c0-1.27-.53-2-1.74-2s-1.86.71-1.86,2.45c0,1.52.31,2.45,3.17,5.43,3,3.16,3.6,4.25,3.6,6.95,0,3.51-1.37,5.52-5.06,5.52-2.86,0-4.81-1.21-4.81-4Z"/>
      <path d="M305.44,323.39H309l4.56,22.4H310.5l-1-5.71h-4.84l-1,5.71H300.5Zm-.34,14.08H309l-1.93-10.8h-.06Z"/>
      <path d="M329.24,341h0V337.7h1.86v3.21a5.4,5.4,0,0,1-.51,2.75l1,2.13H329.4l-.2-.47a4.35,4.35,0,0,1-2.24.6c-2.55,0-3.13-1.48-3.13-4.1,0-1.91.11-3.9,1.8-4.72a8.15,8.15,0,0,1-1.2-4c0-2.19,1.15-3.35,2.82-3.35,2,0,2.84,1.17,2.84,3a5.86,5.86,0,0,1-2.31,4.56Zm-2.93-2.28c-.31.44-.4,1.2-.4,2.9s.27,2.66,1.2,2.66a1.54,1.54,0,0,0,1.31-.66Zm0-5.74a6.26,6.26,0,0,0,.73,2.92,4.28,4.28,0,0,0,1.2-3c0-1-.31-1.53-1-1.53S326.29,332,326.29,333Z"/>
      <path d="M341.9,323.39h5c5,0,5.43,1.68,5.43,8.19v6.67c0,5.74-1,7.54-5.93,7.54h-4.5ZM345,343.18h1.49c2.3,0,2.73-1.21,2.73-5.06v-7.69c0-3.32-.34-4.44-3-4.44H345Z"/>
      <path d="M359.79,323.39h3.6l4.56,22.4h-3.11l-1-5.71H359l-1,5.71h-3.11Zm-.34,14.08h3.94l-1.93-10.8h-.06Z"/>
      <path d="M371.13,323.39h4.29L379.08,342h.06V323.39h2.92v22.4h-4.47l-3.66-19.11h-.06v19.11h-2.73Z"/>
      <path d="M385.94,323.39H389v22.4h-3.11Z"/>
      <path d="M392.93,323.39H396v19.79h5.22v2.61h-8.32Z"/>
      <path d="M404.29,329.1c0-3.13,1-5.89,5.25-5.89,4,0,5.28,2.08,5.28,5.55v11.32c0,3.13-1,5.89-5.28,5.89-4,0-5.25-2.08-5.25-5.55Zm3.11,11.51c0,1.92.87,2.95,2.14,2.95s2.17-1,2.17-2.95V328.85c0-2.2-.75-3.23-2.17-3.23s-2.14,1-2.14,3.23Z"/>
      <path d="M426.15,323.39h5.4c3.82,0,4.47,1.33,4.47,5.43,0,4.4-.71,5.12-2.83,5.4v.06c2.48.46,3,1.3,3,5.12,0,4.84-.62,6.39-5.15,6.39h-4.88Zm3.11,9.62h1.8c1.86,0,2-.37,2-4,0-2.54-.4-3.16-2.39-3.16h-1.46Zm0,10.36h1.93c1.77,0,2.08-.53,2.08-4.06,0-3.38-.28-3.88-2-3.88h-2Z"/>
      <path d="M450.35,340.73c0,2.61-1,5.24-5.25,5.24s-5.28-2.64-5.28-5.24V323.39h3.11v17.87c0,1.52.56,2.3,2.17,2.3s2.14-.78,2.14-2.3V323.39h3.11Z"/>
      <path d="M454.23,323.39h5.4c3.82,0,4.47,1.33,4.47,5.43,0,4.4-.71,5.12-2.83,5.4v.06c2.48.46,3,1.3,3,5.12,0,4.84-.62,6.39-5.15,6.39h-4.88Zm3.11,9.62h1.8c1.86,0,2-.37,2-4,0-2.54-.4-3.16-2.39-3.16h-1.46Zm0,10.36h1.93c1.77,0,2.08-.53,2.08-4.06,0-3.38-.28-3.88-2-3.88h-2Z"/>
      <path d="M471.93,323.39h3.6l4.56,22.4H477l-1-5.71h-4.84l-1,5.71H467Zm-.34,14.08h3.94l-1.93-10.8h-.06Z"/>
      <path d="M483.26,323.39h4.29L491.21,342h.06V323.39h2.92v22.4h-4.47l-3.66-19.11H486v19.11h-2.73Z"/>
      <path d="M498.08,323.39h3.11v22.4h-3.11Z"/>
      <path d="M519.64,329.79h3.57c3.59,0,3.88,1.2,3.88,5.85v4.76c0,4.1-.73,5.38-4.24,5.38h-3.22Zm2.22,14.14h1.06c1.64,0,2-.86,2-3.61v-5.49c0-2.37-.24-3.17-2.13-3.17h-.89Z"/>
      <path d="M529.8,329.79H532v16H529.8Z"/>
      <path d="M534.79,329.79h3.44c3.24,0,3.57.86,3.57,4.36,0,2.15-.29,3.08-2.11,3.63v0c1.51.16,2,.93,2,2.44v3.48a10.94,10.94,0,0,0,.13,2h-2.09a2.75,2.75,0,0,1-.27-1.44v-3.61c0-1.51-.27-1.91-1.73-1.91H537v7h-2.22ZM537,337h.58c1.75,0,2-.33,2-2.72s-.13-2.59-1.51-2.59H537Z"/>
      <path d="M544.62,329.79h6v1.86h-3.82v5h3.59v1.86h-3.59v5.41h3.82v1.86h-6Z"/>
      <path d="M552.23,343.77l5-12.12h-4.37v-1.86h6.59v1.86l-5,12.27h5.1v1.86h-7.32Z"/>
      <path d="M561.74,329.79H564v16h-2.22Z"/>
      <path d="M566.67,333.87c0-2.24.73-4.21,3.75-4.21,2.86,0,3.77,1.48,3.77,4v8.09c0,2.24-.73,4.21-3.77,4.21-2.84,0-3.75-1.48-3.75-4Zm2.22,8.22c0,1.37.62,2.1,1.53,2.1s1.55-.73,1.55-2.1v-8.4c0-1.57-.53-2.3-1.55-2.3s-1.53.73-1.53,2.3Z"/>
      <path d="M577,329.79H580l2.62,13.29h0V329.79h2.08v16h-3.19L579,332.14h0v13.65h-2Z"/>
      <path d="M587.61,329.79h6v1.86h-3.82v5h3.59v1.86h-3.59v5.41h3.82v1.86h-6Z"/>
      <path d="M601.12,329.79h3.57c3.59,0,3.88,1.2,3.88,5.85v4.76c0,4.1-.73,5.38-4.24,5.38h-3.22Zm2.22,14.14h1.06c1.64,0,2-.86,2-3.61v-5.49c0-2.37-.24-3.17-2.13-3.17h-.89Z"/>
      <path d="M611.34,329.79h6v1.86h-3.82v5h3.59v1.86h-3.59v5.41h3.82v1.86h-6Z"/>
      <path d="M619.53,329.79h2.22v14.14h3.73v1.86h-5.94Z"/>
      <path d="M627.71,329.79h2.22v14.14h3.73v1.86h-5.94Z"/>
      <path d="M638.85,329.79h2.57l3.26,16h-2.22l-.73-4.08h-3.46l-.73,4.08h-2.22Zm-.24,10.06h2.82L640,332.14h0Z"/>
      <path d="M652.27,329.79h6v1.86h-3.82v5h3.59v1.86h-3.59v7.27h-2.22Z"/>
      <path d="M660.38,333.87c0-2.24.73-4.21,3.75-4.21,2.86,0,3.77,1.48,3.77,4v8.09c0,2.24-.73,4.21-3.77,4.21-2.84,0-3.75-1.48-3.75-4Zm2.22,8.22c0,1.37.62,2.1,1.53,2.1s1.55-.73,1.55-2.1v-8.4c0-1.57-.53-2.3-1.55-2.3s-1.53.73-1.53,2.3Z"/>
      <path d="M669.72,329.79h7.54v1.86H674.6v14.14h-2.22V331.65h-2.66Z"/>
      <path d="M679.08,333.87c0-2.24.73-4.21,3.75-4.21,2.86,0,3.77,1.48,3.77,4v8.09c0,2.24-.73,4.21-3.77,4.21-2.84,0-3.75-1.48-3.75-4Zm2.22,8.22c0,1.37.62,2.1,1.53,2.1s1.55-.73,1.55-2.1v-8.4c0-1.57-.53-2.3-1.55-2.3s-1.53.73-1.53,2.3Z"/>
      <path d="M694.54,334v-.82c0-1.13-.55-1.82-1.42-1.82-1,0-1.53.93-1.53,2.64v8.07c0,1.29.62,2.1,1.53,2.1a6.47,6.47,0,0,0,1.42-.15v-4.7h-1.46v-1.86h3.68v8a18.66,18.66,0,0,1-3.66.4c-2.82,0-3.73-1.48-3.73-4v-8.09c0-3,.91-4.21,3.77-4.21,2.37,0,3.62.86,3.62,2.9V334Z"/>
      <path d="M702.55,329.79h2.57l3.26,16h-2.22l-.73-4.08H702l-.73,4.08H699Zm-.24,10.06h2.82l-1.38-7.71h0Z"/>
      <path d="M710.65,329.79h6v1.86h-3.82v5h3.59v1.86h-3.59v7.27h-2.22Z"/>
      <path d="M718.77,329.79H721v16h-2.22Z"/>
      <path d="M726.71,329.79h2.57l3.26,16h-2.22l-.73-4.08h-3.46l-.73,4.08h-2.22Zm-.24,10.06h2.82l-1.38-7.71h0Z"/>
      <path d="M740.12,339.3h3.11v1.83c0,1.49.56,2.42,1.8,2.42,1.65,0,2-1.12,2-2.58,0-1.89-.09-2.51-3.32-5.71-2-2-3.63-3.79-3.63-6.82,0-3.66,1.71-5.24,5.09-5.24a5.29,5.29,0,0,1,3.63,1.24,3.59,3.59,0,0,1,.9,2.85v2.11h-2.92v-1.77c0-1.27-.53-2-1.74-2s-1.86.71-1.86,2.45c0,1.52.31,2.45,3.17,5.43,3,3.16,3.6,4.25,3.6,6.95,0,3.51-1.37,5.52-5.06,5.52-2.86,0-4.81-1.21-4.81-4Z"/>
      <path d="M753.53,323.39h3.11v22.4h-3.11Z"/>
      <path d="M760.52,323.39h3.11v19.79h5.22v2.61h-8.32Z"/>
      <path d="M768,323.39h3.11l3.23,17.81h.06l3.23-17.81h3.11l-4.56,22.4h-3.6Z"/>
      <path d="M783.69,323.39h3.11v22.4h-3.11Z"/>
      <path d="M794.8,323.39h3.6l4.56,22.4h-3.11l-1-5.71H794l-1,5.71h-3.11Zm-.34,14.08h3.94l-1.93-10.8h-.06Z"/>
      <path d="M813.59,323.39h5c5,0,5.43,1.68,5.43,8.19v6.67c0,5.74-1,7.54-5.93,7.54h-4.5Zm3.11,19.79h1.49c2.3,0,2.73-1.21,2.73-5.06v-7.69c0-3.32-.34-4.44-3-4.44H816.7Z"/>
      <path d="M827.81,323.39h3.11v22.4h-3.11Z"/>
      <path d="M849.49,329.32v-1.15c0-1.58-.78-2.54-2-2.54-1.43,0-2.14,1.3-2.14,3.69v11.29c0,1.8.87,2.95,2.14,2.95a9.07,9.07,0,0,0,2-.22v-6.58h-2v-2.61h5.15v11.26a26.1,26.1,0,0,1-5.12.56c-3.94,0-5.22-2.08-5.22-5.55V329.1c0-4.19,1.27-5.89,5.28-5.89,3.32,0,5.06,1.21,5.06,4.06v2Z"/>
      <path d="M856.57,323.39h4.81c4.53,0,5,1.21,5,6.11,0,3-.4,4.31-2.95,5.09v.06c2.11.22,2.83,1.3,2.83,3.41v4.87a15.34,15.34,0,0,0,.19,2.85h-2.92a3.84,3.84,0,0,1-.37-2v-5.06c0-2.11-.37-2.67-2.42-2.67h-1.06v9.74h-3.11Zm3.11,10.05h.81c2.45,0,2.79-.47,2.79-3.82s-.19-3.63-2.11-3.63h-1.49Z"/>
      <path d="M870.33,323.39h8.45V326h-5.34v7h5v2.61h-5v7.57h5.34v2.61h-8.45Z"/>
      <path d="M889,329.32v-1.15c0-1.58-.78-2.54-2-2.54-1.43,0-2.14,1.3-2.14,3.69v11.29c0,1.8.87,2.95,2.14,2.95a9.07,9.07,0,0,0,2-.22v-6.58h-2v-2.61h5.15v11.26A26.1,26.1,0,0,1,887,346c-3.94,0-5.22-2.08-5.22-5.55V329.1c0-4.19,1.27-5.89,5.28-5.89,3.32,0,5.06,1.21,5.06,4.06v2Z"/>
      <path d="M896,329.1c0-3.13,1-5.89,5.25-5.89,4,0,5.28,2.08,5.28,5.55v11.32c0,3.13-1,5.89-5.28,5.89-4,0-5.25-2.08-5.25-5.55Zm3.11,11.51c0,1.92.87,2.95,2.14,2.95s2.17-1,2.17-2.95V328.85c0-2.2-.75-3.23-2.17-3.23s-2.14,1-2.14,3.23Z"/>
      <path d="M910.42,323.39h4.81c4.53,0,5,1.21,5,6.11,0,3-.4,4.31-2.95,5.09v.06c2.11.22,2.83,1.3,2.83,3.41v4.87a15.34,15.34,0,0,0,.19,2.85h-2.92a3.84,3.84,0,0,1-.37-2v-5.06c0-2.11-.37-2.67-2.42-2.67h-1.06v9.74h-3.11Zm3.11,10.05h.81c2.45,0,2.79-.47,2.79-3.82S916.94,326,915,326h-1.49Z"/>
      <path d="M924.08,323.39h3.11v22.4h-3.11Z"/>
      <path d="M931,329.1c0-3.13,1-5.89,5.25-5.89,4,0,5.28,2.08,5.28,5.55v11.32c0,3.13-1,5.89-5.28,5.89-4,0-5.25-2.08-5.25-5.55Zm3.11,11.51c0,1.92.87,2.95,2.14,2.95s2.17-1,2.17-2.95V328.85c0-2.2-.75-3.23-2.17-3.23s-2.14,1-2.14,3.23Z"/>
      <path d="M0,366.88c0-2.24.73-4.21,3.75-4.21,2.86,0,3.77,1.48,3.77,4v8.09c0,2.24-.73,4.21-3.77,4.21-2.84,0-3.75-1.48-3.75-4Zm2.22,8.22c0,1.37.62,2.1,1.53,2.1s1.55-.73,1.55-2.1v-8.4c0-1.57-.53-2.3-1.55-2.3s-1.53.73-1.53,2.3Z"/>
      <path d="M10.29,362.8H14c3,0,3.59.82,3.59,4.52S17,371.84,14,371.84H12.51v7H10.29ZM12.51,370h1.15c1.51,0,1.66-.24,1.66-2.66s-.16-2.66-1.66-2.66H12.51Z"/>
      <path d="M20.12,362.8h6v1.86H22.34v5h3.59v1.86H22.34v5.41h3.82v1.86h-6Z"/>
      <path d="M28.3,362.8h3.44c3.24,0,3.57.86,3.57,4.36,0,2.15-.29,3.08-2.11,3.63v0c1.51.16,2,.93,2,2.44v3.48a10.94,10.94,0,0,0,.13,2H33.27a2.75,2.75,0,0,1-.27-1.44v-3.61c0-1.51-.27-1.91-1.73-1.91h-.75v7H28.3ZM30.52,370h.58c1.75,0,2-.33,2-2.72s-.13-2.59-1.51-2.59H30.52Z"/>
      <path d="M41.08,362.8h2.57l3.26,16H44.7L44,374.72H40.5l-.73,4.08H37.55Zm-.24,10.06h2.82l-1.38-7.71h0Z"/>
      <path d="M46.72,362.8h7.54v1.86H51.59V378.8H49.38V364.66H46.72Z"/>
      <path d="M56.08,366.88c0-2.24.73-4.21,3.75-4.21,2.86,0,3.77,1.48,3.77,4v8.09c0,2.24-.73,4.21-3.77,4.21-2.84,0-3.75-1.48-3.75-4Zm2.22,8.22c0,1.37.62,2.1,1.53,2.1s1.55-.73,1.55-2.1v-8.4c0-1.57-.53-2.3-1.55-2.3s-1.53.73-1.53,2.3Z"/>
      <path d="M66.37,362.8h3.44c3.24,0,3.57.86,3.57,4.36,0,2.15-.29,3.08-2.11,3.63v0c1.51.16,2,.93,2,2.44v3.48a10.94,10.94,0,0,0,.13,2H71.34a2.75,2.75,0,0,1-.27-1.44v-3.61c0-1.51-.27-1.91-1.73-1.91h-.75v7H66.37ZM68.59,370h.58c1.75,0,2-.33,2-2.72s-.13-2.59-1.51-2.59H68.59Z"/>
      <path d="M76.19,362.8h6v1.86H78.41v5H82v1.86H78.41v5.41h3.82v1.86h-6Z"/>
      <path d="M95,374.06h0v-3.35H97v3.21a5.4,5.4,0,0,1-.51,2.75l1,2.13H95.2l-.2-.47a4.35,4.35,0,0,1-2.24.6c-2.55,0-3.13-1.48-3.13-4.1,0-1.91.11-3.9,1.8-4.72a8.15,8.15,0,0,1-1.2-4c0-2.19,1.15-3.35,2.82-3.35,2,0,2.84,1.17,2.84,3a5.86,5.86,0,0,1-2.31,4.56Zm-2.93-2.28c-.31.44-.4,1.2-.4,2.9s.27,2.66,1.2,2.66a1.54,1.54,0,0,0,1.31-.66Zm0-5.74a6.26,6.26,0,0,0,.73,2.92,4.28,4.28,0,0,0,1.2-3c0-1-.31-1.53-1-1.53S92.1,365,92.1,366Z"/>
      <path d="M105,366.88c0-2.24.73-4.21,3.75-4.21,2.2,0,3.22,1.11,3.22,2.9v1.6h-2.08v-1.11c0-1-.36-1.66-1.29-1.66-1.15,0-1.37.82-1.37,2.75V375c0,1.88.6,2.22,1.31,2.22s1.35-.58,1.35-1.91v-1.11H112V376c0,1.68-.69,3-3.26,3-2.79,0-3.7-1.48-3.7-4Z"/>
      <path d="M114.19,366.88c0-2.24.73-4.21,3.75-4.21,2.86,0,3.77,1.48,3.77,4v8.09c0,2.24-.73,4.21-3.77,4.21-2.84,0-3.75-1.48-3.75-4Zm2.22,8.22c0,1.37.62,2.1,1.53,2.1s1.55-.73,1.55-2.1v-8.4c0-1.57-.53-2.3-1.55-2.3s-1.53.73-1.53,2.3Z"/>
      <path d="M124.48,362.8h2.22v14.14h3.73v1.86h-5.94Z"/>
      <path d="M132.6,366.88c0-2.24.73-4.21,3.75-4.21,2.86,0,3.77,1.48,3.77,4v8.09c0,2.24-.73,4.21-3.77,4.21-2.84,0-3.75-1.48-3.75-4Zm2.22,8.22c0,1.37.62,2.1,1.53,2.1s1.55-.73,1.55-2.1v-8.4c0-1.57-.53-2.3-1.55-2.3s-1.53.73-1.53,2.3Z"/>
      <path d="M142.9,362.8h3.44c3.24,0,3.57.86,3.57,4.36,0,2.15-.29,3.08-2.11,3.63v0c1.51.16,2,.93,2,2.44v3.48a10.94,10.94,0,0,0,.13,2h-2.09a2.75,2.75,0,0,1-.27-1.44v-3.61c0-1.51-.27-1.91-1.73-1.91h-.75v7H142.9Zm2.22,7.18h.58c1.75,0,2-.33,2-2.72s-.13-2.59-1.51-2.59h-1.06Z"/>
      <path d="M152.66,362.8h2.22v16h-2.22Z"/>
      <path d="M157.4,374.17h2.22v1.31c0,1.06.4,1.73,1.29,1.73,1.18,0,1.46-.8,1.46-1.84,0-1.35-.07-1.8-2.37-4.08-1.42-1.42-2.59-2.7-2.59-4.87,0-2.61,1.22-3.74,3.64-3.74a3.77,3.77,0,0,1,2.59.89,2.57,2.57,0,0,1,.64,2v1.51h-2.09v-1.26c0-.91-.38-1.44-1.24-1.44s-1.33.51-1.33,1.75c0,1.09.22,1.75,2.26,3.88s2.57,3,2.57,5c0,2.5-1,3.94-3.62,3.94-2,0-3.44-.86-3.44-2.86Z"/>
      <path d="M166.36,362.8h7.54v1.86h-2.66V378.8H169V364.66h-2.66Z"/>
      <path d="M183.84,356.4h4.94l2.86,17.06h.06l2.86-17.06h4.81v22.4h-2.92V358.64h-.06l-3.17,20.16h-3.11l-3.48-20.16h-.06V378.8h-2.73Z"/>
      <path d="M207.47,356.4h3.6l4.56,22.4h-3.11l-1-5.71h-4.84l-1,5.71h-3.11Zm-.34,14.08h3.94l-1.93-10.8h-.06Z"/>
      <path d="M215.36,356.4h10.56V359h-3.73V378.8h-3.11V359h-3.73Z"/>
      <path d="M228,356.4h10.56V359H234.8V378.8h-3.11V359H228Z"/>
      <path d="M241.44,356.4h3.11v22.4h-3.11Z"/>
      <path d="M252.56,356.4h3.6l4.56,22.4h-3.11l-1-5.71h-4.84l-1,5.71h-3.11Zm-.34,14.08h3.94l-1.93-10.8h-.06Z"/>
      <path d="M269.24,356.4H279.8V359h-3.73V378.8H273V359h-3.73Z"/>
      <path d="M282.81,356.4h8.45V359h-5.34v7h5v2.61h-5v7.57h5.34v2.61h-8.45Z"/>
      <path d="M294.27,356.4h5c5,0,5.43,1.68,5.43,8.19v6.67c0,5.74-1,7.54-5.93,7.54h-4.5Zm3.11,19.79h1.49c2.3,0,2.73-1.21,2.73-5.06v-7.69c0-3.32-.34-4.44-3-4.44h-1.24Z"/>
      <path d="M308.58,356.4H317V359h-5.34v7h5v2.61h-5v7.57H317v2.61h-8.45Z"/>
      <path d="M319.7,372.32h3.11v1.83c0,1.49.56,2.42,1.8,2.42,1.65,0,2-1.12,2-2.58,0-1.89-.09-2.51-3.32-5.71-2-2-3.63-3.79-3.63-6.82,0-3.66,1.71-5.24,5.09-5.24a5.29,5.29,0,0,1,3.63,1.24,3.59,3.59,0,0,1,.9,2.85v2.11h-2.92v-1.77c0-1.27-.53-2-1.74-2s-1.86.71-1.86,2.45c0,1.52.31,2.45,3.17,5.43,3,3.16,3.6,4.25,3.6,6.95,0,3.51-1.37,5.52-5.06,5.52-2.86,0-4.81-1.21-4.81-4Z"/>
      <path d="M332.87,362.11c0-3.13,1-5.89,5.25-5.89,3.07,0,4.5,1.55,4.5,4.06v2.23H339.7V361c0-1.43-.5-2.33-1.8-2.33-1.61,0-1.93,1.15-1.93,3.85v11c0,2.64.84,3.1,1.83,3.1,1.15,0,1.89-.81,1.89-2.67v-1.55h2.92v2.48c0,2.36-1,4.16-4.56,4.16-3.91,0-5.19-2.08-5.19-5.55Z"/>
      <path d="M345.82,356.4h3.11V366h4.13V356.4h3.11v22.4h-3.11V368.63h-4.13V378.8h-3.11Z"/>
      <path d="M360,356.4h3.11v22.4H360Z"/>
      <path d="M384.56,362.8h2.57l3.26,16h-2.22l-.73-4.08H384l-.73,4.08H381Zm-.24,10.06h2.82l-1.38-7.71h0Z"/>
      <path d="M392.41,374.17h2.22v1.31c0,1.06.4,1.73,1.29,1.73,1.18,0,1.46-.8,1.46-1.84,0-1.35-.07-1.8-2.37-4.08-1.42-1.42-2.59-2.7-2.59-4.87,0-2.61,1.22-3.74,3.64-3.74a3.77,3.77,0,0,1,2.59.89,2.57,2.57,0,0,1,.64,2v1.51H397.2v-1.26c0-.91-.38-1.44-1.24-1.44s-1.33.51-1.33,1.75c0,1.09.22,1.75,2.26,3.88s2.57,3,2.57,5c0,2.5-1,3.94-3.62,3.94-2,0-3.44-.86-3.44-2.86Z"/>
      <path d="M401.81,374.17H404v1.31c0,1.06.4,1.73,1.29,1.73,1.18,0,1.46-.8,1.46-1.84,0-1.35-.07-1.8-2.37-4.08-1.42-1.42-2.59-2.7-2.59-4.87,0-2.61,1.22-3.74,3.64-3.74a3.77,3.77,0,0,1,2.59.89,2.57,2.57,0,0,1,.64,2v1.51H406.6v-1.26c0-.91-.38-1.44-1.24-1.44s-1.33.51-1.33,1.75c0,1.09.22,1.75,2.26,3.88s2.57,3,2.57,5c0,2.5-1,3.94-3.62,3.94-2,0-3.44-.86-3.44-2.86Z"/>
      <path d="M411.4,362.8h2.22v16H411.4Z"/>
      <path d="M416.14,374.17h2.22v1.31c0,1.06.4,1.73,1.29,1.73,1.18,0,1.46-.8,1.46-1.84,0-1.35-.07-1.8-2.37-4.08-1.42-1.42-2.59-2.7-2.59-4.87,0-2.61,1.22-3.74,3.64-3.74a3.77,3.77,0,0,1,2.59.89,2.57,2.57,0,0,1,.64,2v1.51h-2.08v-1.26c0-.91-.38-1.44-1.24-1.44s-1.33.51-1.33,1.75c0,1.09.22,1.75,2.26,3.88s2.57,3,2.57,5c0,2.5-1,3.94-3.62,3.94-2,0-3.44-.86-3.44-2.86Z"/>
      <path d="M425.11,362.8h7.54v1.86H430V378.8h-2.22V364.66h-2.66Z"/>
      <path d="M434.8,362.8h6v1.86H437v5h3.59v1.86H437v5.41h3.82v1.86h-6Z"/>
      <path d="M443,362.8H446l2.62,13.29h0V362.8h2.08v16H447.6L445,365.15h0V378.8h-2Z"/>
      <path d="M452.94,362.8h7.54v1.86h-2.66V378.8H455.6V364.66h-2.66Z"/>
      <path d="M462.64,362.8h6v1.86h-3.82v5h3.59v1.86h-3.59v5.41h3.82v1.86h-6Z"/>
      <path d="M476.08,366.88c0-2.24.73-4.21,3.75-4.21,2.86,0,3.77,1.48,3.77,4v8.09c0,2.24-.73,4.21-3.77,4.21-2.84,0-3.75-1.48-3.75-4Zm2.22,8.22c0,1.37.62,2.1,1.53,2.1s1.55-.73,1.55-2.1v-8.4c0-1.57-.53-2.3-1.55-2.3s-1.53.73-1.53,2.3Z"/>
      <path d="M486.37,362.8H490c3,0,3.59.82,3.59,4.52s-.58,4.52-3.59,4.52h-1.44v7h-2.22Zm2.22,7.18h1.15c1.51,0,1.66-.24,1.66-2.66s-.16-2.66-1.66-2.66h-1.15Z"/>
      <path d="M496.2,362.8h6v1.86h-3.82v5H502v1.86h-3.59v5.41h3.82v1.86h-6Z"/>
      <path d="M504.38,362.8h3.44c3.24,0,3.57.86,3.57,4.36,0,2.15-.29,3.08-2.11,3.63v0c1.51.16,2,.93,2,2.44v3.48a10.94,10.94,0,0,0,.13,2h-2.09a2.75,2.75,0,0,1-.27-1.44v-3.61c0-1.51-.27-1.91-1.73-1.91h-.75v7h-2.22ZM506.6,370h.58c1.75,0,2-.33,2-2.72s-.13-2.59-1.51-2.59H506.6Z"/>
      <path d="M517.16,362.8h2.57l3.26,16h-2.22l-.73-4.08h-3.46l-.73,4.08h-2.22Zm-.24,10.06h2.82l-1.38-7.71h0Z"/>
      <path d="M522.79,362.8h7.54v1.86h-2.66V378.8h-2.22V364.66h-2.66Z"/>
      <path d="M532.15,366.88c0-2.24.73-4.21,3.75-4.21,2.86,0,3.77,1.48,3.77,4v8.09c0,2.24-.73,4.21-3.77,4.21-2.84,0-3.75-1.48-3.75-4Zm2.22,8.22c0,1.37.62,2.1,1.53,2.1s1.55-.73,1.55-2.1v-8.4c0-1.57-.53-2.3-1.55-2.3s-1.53.73-1.53,2.3Z"/>
      <path d="M542.45,362.8h3.44c3.24,0,3.57.86,3.57,4.36,0,2.15-.29,3.08-2.11,3.63v0c1.51.16,2,.93,2,2.44v3.48a10.94,10.94,0,0,0,.13,2h-2.09a2.75,2.75,0,0,1-.27-1.44v-3.61c0-1.51-.27-1.91-1.73-1.91h-.75v7h-2.22Zm2.22,7.18h.58c1.75,0,2-.33,2-2.72s-.13-2.59-1.51-2.59h-1.06Z"/>
      <path d="M552.27,362.8h6v1.86h-3.82v5h3.59v1.86h-3.59v5.41h3.82v1.86h-6Z"/>
      <path d="M568.24,356.4h8.45V359h-5.34v7h5v2.61h-5V378.8h-3.11Z"/>
      <path d="M579.7,356.4h4.81c4.53,0,5,1.21,5,6.11,0,3-.4,4.31-2.95,5.09v.06c2.11.22,2.83,1.3,2.83,3.41v4.87a15.34,15.34,0,0,0,.19,2.85h-2.92a3.84,3.84,0,0,1-.37-2v-5.06c0-2.11-.37-2.67-2.42-2.67H582.8v9.74H579.7Zm3.11,10.05h.81c2.45,0,2.79-.47,2.79-3.82s-.19-3.63-2.11-3.63H582.8Z"/>
      <path d="M597.59,356.4h3.6l4.56,22.4h-3.11l-1-5.71h-4.84l-1,5.71h-3.11Zm-.34,14.08h3.94l-1.93-10.8h-.06Z"/>
      <path d="M608.92,356.4h4.29L616.87,375h.06V356.4h2.92v22.4h-4.47l-3.66-19.11h-.06V378.8h-2.73Z"/>
      <path d="M623.48,362.11c0-3.13,1-5.89,5.25-5.89,3.07,0,4.5,1.55,4.5,4.06v2.23h-2.92V361c0-1.43-.5-2.33-1.8-2.33-1.61,0-1.93,1.15-1.93,3.85v11c0,2.64.84,3.1,1.83,3.1,1.15,0,1.89-.81,1.89-2.67v-1.55h2.92v2.48c0,2.36-1,4.16-4.56,4.16-3.91,0-5.19-2.08-5.19-5.55Z"/>
      <path d="M636.43,356.4h8.45V359h-5.34v7h5v2.61h-5v7.57h5.34v2.61h-8.45Z"/>
      <path d="M647.55,372.32h3.11v1.83c0,1.49.56,2.42,1.8,2.42,1.65,0,2-1.12,2-2.58,0-1.89-.09-2.51-3.32-5.71-2-2-3.63-3.79-3.63-6.82,0-3.66,1.71-5.24,5.09-5.24a5.29,5.29,0,0,1,3.63,1.24,3.59,3.59,0,0,1,.9,2.85v2.11h-2.92v-1.77c0-1.27-.53-2-1.74-2s-1.86.71-1.86,2.45c0,1.52.31,2.45,3.17,5.43,3,3.16,3.6,4.25,3.6,6.95,0,3.51-1.37,5.52-5.06,5.52-2.86,0-4.81-1.21-4.81-4Z"/>
      <path d="M660.72,362.11c0-3.13,1-5.89,5.25-5.89,3.07,0,4.5,1.55,4.5,4.06v2.23h-2.92V361c0-1.43-.5-2.33-1.8-2.33-1.61,0-1.93,1.15-1.93,3.85v11c0,2.64.84,3.1,1.83,3.1,1.15,0,1.89-.81,1.89-2.67v-1.55h2.92v2.48c0,2.36-1,4.16-4.56,4.16-3.91,0-5.19-2.08-5.19-5.55Z"/>
      <path d="M673.58,362.11c0-3.13,1-5.89,5.25-5.89,4,0,5.28,2.08,5.28,5.55v11.32c0,3.13-1,5.89-5.28,5.89-4,0-5.25-2.08-5.25-5.55Zm3.11,11.51c0,1.92.87,2.95,2.14,2.95s2.17-1,2.17-2.95V361.86c0-2.2-.75-3.23-2.17-3.23s-2.14,1-2.14,3.23Z"/>
      <path d="M693.33,356.4h10.56V359h-3.73V378.8h-3.11V359h-3.73Z"/>
      <path d="M706.9,356.4h4.81c4.53,0,5,1.21,5,6.11,0,3-.4,4.31-2.95,5.09v.06c2.11.22,2.83,1.3,2.83,3.41v4.87a15.34,15.34,0,0,0,.19,2.85h-2.92a3.84,3.84,0,0,1-.37-2v-5.06c0-2.11-.37-2.67-2.42-2.67H710v9.74H706.9ZM710,366.45h.81c2.45,0,2.79-.47,2.79-3.82s-.19-3.63-2.11-3.63H710Z"/>
      <path d="M720.56,356.4h3.11v22.4h-3.11Z"/>
      <path d="M727.21,372.32h3.11v1.83c0,1.49.56,2.42,1.8,2.42,1.65,0,2-1.12,2-2.58,0-1.89-.09-2.51-3.32-5.71-2-2-3.63-3.79-3.63-6.82,0-3.66,1.71-5.24,5.09-5.24a5.29,5.29,0,0,1,3.63,1.24,3.59,3.59,0,0,1,.9,2.85v2.11h-2.92v-1.77c0-1.27-.53-2-1.74-2s-1.86.71-1.86,2.45c0,1.52.31,2.45,3.17,5.43,3,3.16,3.6,4.25,3.6,6.95,0,3.51-1.37,5.52-5.06,5.52-2.86,0-4.81-1.21-4.81-4Z"/>
      <path d="M740.62,356.4h3.11v22.4h-3.11Z"/>
      <path d="M767.36,367v-.82c0-1.13-.55-1.82-1.42-1.82-1,0-1.53.93-1.53,2.64v8.07c0,1.29.62,2.1,1.53,2.1a6.47,6.47,0,0,0,1.42-.15v-4.7h-1.46v-1.86h3.68v8a18.66,18.66,0,0,1-3.66.4c-2.82,0-3.73-1.48-3.73-4v-8.09c0-3,.91-4.21,3.77-4.21,2.37,0,3.62.86,3.62,2.9V367Z"/>
      <path d="M775.36,362.8h2.57l3.26,16H779l-.73-4.08h-3.46l-.73,4.08h-2.22Zm-.24,10.06h2.82l-1.38-7.71h0Z"/>
      <path d="M783.46,362.8h6v1.86h-3.82v5h3.59v1.86h-3.59v7.27h-2.22Z"/>
      <path d="M791.64,362.8h6v1.86h-3.82v5h3.59v1.86h-3.59v7.27h-2.22Z"/>
      <path d="M799.83,362.8h6v1.86H802v5h3.59v1.86H802v5.41h3.82v1.86h-6Z"/>
      <path d="M808,362.8h3.44c3.24,0,3.57.86,3.57,4.36,0,2.15-.29,3.08-2.11,3.63v0c1.51.16,2,.93,2,2.44v3.48a10.94,10.94,0,0,0,.13,2H813a2.75,2.75,0,0,1-.27-1.44v-3.61c0-1.51-.27-1.91-1.73-1.91h-.75v7H808Zm2.22,7.18h.58c1.75,0,2-.33,2-2.72s-.13-2.59-1.51-2.59h-1.06Z"/>
      <path d="M823.51,356.4h10.56V359h-3.73V378.8h-3.11V359h-3.73Z"/>
      <path d="M836.62,362.11c0-3.13,1-5.89,5.25-5.89,4,0,5.28,2.08,5.28,5.55v11.32c0,3.13-1,5.89-5.28,5.89-4,0-5.25-2.08-5.25-5.55Zm3.11,11.51c0,1.92.87,2.95,2.14,2.95s2.17-1,2.17-2.95V361.86c0-2.2-.75-3.23-2.17-3.23s-2.14,1-2.14,3.23Z"/>
      <path d="M851,356.4H856l2.86,17.06h.06l2.86-17.06h4.81v22.4h-2.92V358.64h-.06L860.4,378.8H857.3l-3.48-20.16h-.06V378.8H851Z"/>
      <path d="M870.53,356.4h4.94l2.86,17.06h.06l2.86-17.06h4.81v22.4h-2.92V358.64h-.06l-3.17,20.16H876.8l-3.48-20.16h-.06V378.8h-2.73Z"/>
      <path d="M894.16,356.4h3.6l4.56,22.4h-3.11l-1-5.71h-4.84l-1,5.71h-3.11Zm-.34,14.08h3.94l-1.93-10.8h-.06Z"/>
      <path d="M905.15,372.32h3.11v1.83c0,1.49.56,2.42,1.8,2.42,1.65,0,2-1.12,2-2.58,0-1.89-.09-2.51-3.32-5.71-2-2-3.63-3.79-3.63-6.82,0-3.66,1.71-5.24,5.09-5.24a5.29,5.29,0,0,1,3.63,1.24,3.59,3.59,0,0,1,.9,2.85v2.11h-2.92v-1.77c0-1.27-.53-2-1.74-2s-1.86.71-1.86,2.45c0,1.52.31,2.45,3.17,5.43,3,3.16,3.6,4.25,3.6,6.95C915,377,913.66,379,910,379c-2.86,0-4.81-1.21-4.81-4Z"/>
      <path d="M918.57,362.11c0-3.13,1-5.89,5.25-5.89,4,0,5.28,2.08,5.28,5.55v11.32c0,3.13-1,5.89-5.28,5.89-4,0-5.25-2.08-5.25-5.55Zm3.11,11.51c0,1.92.87,2.95,2.14,2.95s2.17-1,2.17-2.95V361.86c0-2.2-.75-3.23-2.17-3.23s-2.14,1-2.14,3.23Z"/>
      <path d="M940.09,372.32h3.11v1.83c0,1.49.56,2.42,1.8,2.42,1.65,0,2-1.12,2-2.58,0-1.89-.09-2.51-3.32-5.71-2-2-3.63-3.79-3.63-6.82,0-3.66,1.71-5.24,5.09-5.24a5.29,5.29,0,0,1,3.63,1.24,3.59,3.59,0,0,1,.9,2.85v2.11H946.8v-1.77c0-1.27-.53-2-1.74-2s-1.86.71-1.86,2.45c0,1.52.31,2.45,3.17,5.43,3,3.16,3.6,4.25,3.6,6.95,0,3.51-1.37,5.52-5.06,5.52-2.86,0-4.81-1.21-4.81-4Z"/>
      <path d="M957.73,356.4h3.6l4.56,22.4h-3.11l-1-5.71h-4.84l-1,5.71h-3.11Zm-.34,14.08h3.94l-1.93-10.8h-.06Z"/>
      <path d="M969.06,356.4h3.11v19.79h5.22v2.61h-8.32Z"/>
      <path d="M976.52,356.4h3.11l3.23,17.81h.06l3.23-17.81h3.11l-4.56,22.4h-3.6Z"/>
      <path d="M991.67,362.11c0-3.13,1-5.89,5.25-5.89,4,0,5.28,2.08,5.28,5.55v11.32c0,3.13-1,5.89-5.28,5.89-4,0-5.25-2.08-5.25-5.55Zm3.11,11.51c0,1.92.87,2.95,2.14,2.95s2.17-1,2.17-2.95V361.86c0-2.2-.75-3.23-2.17-3.23s-2.14,1-2.14,3.23Z"/>
      <path d="M1006.08,356.4h4.29L1014,375h.06V356.4H1017v22.4h-4.47l-3.66-19.11h-.06V378.8h-2.73Z"/>
      <path d="M1020.89,356.4H1024v22.4h-3.11Z"/>
      <path d="M239.74,399.89c0-2.24.73-4.21,3.75-4.21,2.2,0,3.22,1.11,3.22,2.9v1.6h-2.08v-1.11c0-1-.36-1.66-1.29-1.66-1.15,0-1.37.82-1.37,2.75V408c0,1.88.6,2.22,1.31,2.22s1.35-.58,1.35-1.91v-1.11h2.08V409c0,1.68-.69,3-3.26,3-2.79,0-3.7-1.48-3.7-4Z"/>
      <path d="M248.92,399.89c0-2.24.73-4.21,3.75-4.21,2.86,0,3.77,1.48,3.77,4v8.09c0,2.24-.73,4.21-3.77,4.21-2.84,0-3.75-1.48-3.75-4Zm2.22,8.22c0,1.37.62,2.1,1.53,2.1s1.55-.73,1.55-2.1v-8.4c0-1.57-.53-2.3-1.55-2.3s-1.53.73-1.53,2.3Z"/>
      <path d="M259.21,395.82h3.06l2.62,13.29h0V395.82H267v16h-3.19l-2.62-13.65h0v13.65h-2Z"/>
      <path d="M277.64,389.42h8.45V392h-5.34v7h5v2.61h-5v10.17h-3.11Z"/>
      <path d="M289.1,389.42h4.81c4.53,0,5,1.21,5,6.11,0,3-.4,4.31-2.95,5.09v.06c2.11.22,2.83,1.3,2.83,3.41V409a15.34,15.34,0,0,0,.19,2.85h-2.92a3.84,3.84,0,0,1-.37-2v-5.06c0-2.11-.37-2.67-2.42-2.67h-1.06v9.74H289.1Zm3.11,10.05H293c2.45,0,2.79-.47,2.79-3.82s-.19-3.63-2.11-3.63h-1.49Z"/>
      <path d="M307,389.42h3.6l4.56,22.4H312l-1-5.71h-4.84l-1,5.71H302Zm-.34,14.08h3.94l-1.93-10.8h-.06Z"/>
      <path d="M318.32,389.42h4.29L326.27,408h.06V389.42h2.92v22.4h-4.47l-3.66-19.11h-.06v19.11h-2.73Z"/>
      <path d="M332.89,395.12c0-3.13,1-5.89,5.25-5.89,3.07,0,4.5,1.55,4.5,4.06v2.23h-2.92V394c0-1.43-.5-2.33-1.8-2.33-1.61,0-1.93,1.15-1.93,3.85v11c0,2.64.84,3.1,1.83,3.1,1.15,0,1.89-.81,1.89-2.67v-1.55h2.92v2.48c0,2.36-1,4.16-4.56,4.16-3.91,0-5.19-2.08-5.19-5.55Z"/>
      <path d="M345.84,389.42h8.45V392h-5.34v7h5v2.61h-5v7.57h5.34v2.61h-8.45Z"/>
      <path d="M357,405.33h3.11v1.83c0,1.49.56,2.42,1.8,2.42,1.65,0,2-1.12,2-2.58,0-1.89-.09-2.51-3.32-5.71-2-2-3.63-3.79-3.63-6.82,0-3.66,1.71-5.24,5.09-5.24a5.29,5.29,0,0,1,3.63,1.24,3.59,3.59,0,0,1,.9,2.85v2.11h-2.92v-1.77c0-1.27-.53-2-1.74-2s-1.86.71-1.86,2.45c0,1.52.31,2.45,3.17,5.43,3,3.16,3.6,4.25,3.6,6.95,0,3.51-1.37,5.52-5.06,5.52-2.86,0-4.81-1.21-4.81-4Z"/>
      <path d="M370.12,395.12c0-3.13,1-5.89,5.25-5.89,3.07,0,4.5,1.55,4.5,4.06v2.23H377V394c0-1.43-.5-2.33-1.8-2.33-1.61,0-1.93,1.15-1.93,3.85v11c0,2.64.84,3.1,1.83,3.1,1.15,0,1.89-.81,1.89-2.67v-1.55h2.92v2.48c0,2.36-1,4.16-4.56,4.16-3.91,0-5.19-2.08-5.19-5.55Z"/>
      <path d="M386.83,389.42h3.6l4.56,22.4h-3.11l-1-5.71H386l-1,5.71h-3.11Zm-.34,14.08h3.94l-1.93-10.8h-.06Z"/>
      <path d="M405.27,395.12c0-3.13,1-5.89,5.25-5.89,3.07,0,4.5,1.55,4.5,4.06v2.23h-2.92V394c0-1.43-.5-2.33-1.8-2.33-1.61,0-1.93,1.15-1.93,3.85v11c0,2.64.84,3.1,1.83,3.1,1.15,0,1.89-.81,1.89-2.67v-1.55H415v2.48c0,2.36-1,4.16-4.56,4.16-3.91,0-5.19-2.08-5.19-5.55Z"/>
      <path d="M422,389.42h3.6l4.56,22.4H427l-1-5.71h-4.84l-1,5.71H417Zm-.34,14.08h3.94l-1.93-10.8h-.06Z"/>
      <path d="M433,405.33h3.11v1.83c0,1.49.56,2.42,1.8,2.42,1.65,0,2-1.12,2-2.58,0-1.89-.09-2.51-3.32-5.71-2-2-3.63-3.79-3.63-6.82,0-3.66,1.71-5.24,5.09-5.24a5.29,5.29,0,0,1,3.63,1.24,3.59,3.59,0,0,1,.9,2.85v2.11h-2.92v-1.77c0-1.27-.53-2-1.74-2s-1.86.71-1.86,2.45c0,1.52.31,2.45,3.17,5.43,3,3.16,3.6,4.25,3.6,6.95,0,3.51-1.37,5.52-5.06,5.52-2.86,0-4.81-1.21-4.81-4Z"/>
      <path d="M446.14,395.12c0-3.13,1-5.89,5.25-5.89,3.07,0,4.5,1.55,4.5,4.06v2.23H453V394c0-1.43-.5-2.33-1.8-2.33-1.61,0-1.93,1.15-1.93,3.85v11c0,2.64.84,3.1,1.83,3.1,1.15,0,1.89-.81,1.89-2.67v-1.55h2.92v2.48c0,2.36-1,4.16-4.56,4.16-3.91,0-5.19-2.08-5.19-5.55Z"/>
      <path d="M459.09,389.42h8.45V392H462.2v7h5v2.61h-5v7.57h5.34v2.61h-8.45Z"/>
      <path d="M470.55,389.42h3.11v19.79h5.22v2.61h-8.32Z"/>
      <path d="M482,389.42h3.11v19.79h5.22v2.61H482Z"/>
      <path d="M497.6,389.42h3.6l4.56,22.4h-3.11l-1-5.71h-4.84l-1,5.71h-3.11Zm-.34,14.08h3.94l-1.93-10.8h-.06Z"/>
      <path d="M521.4,407.07h0v-3.35h1.86v3.21a5.4,5.4,0,0,1-.51,2.75l1,2.13h-2.22l-.2-.47a4.35,4.35,0,0,1-2.24.6c-2.55,0-3.13-1.48-3.13-4.1,0-1.91.11-3.9,1.8-4.72a8.15,8.15,0,0,1-1.2-4c0-2.19,1.15-3.35,2.82-3.35,2,0,2.84,1.17,2.84,3a5.86,5.86,0,0,1-2.31,4.56Zm-2.93-2.28c-.31.44-.4,1.2-.4,2.9s.27,2.66,1.2,2.66a1.54,1.54,0,0,0,1.31-.66Zm0-5.74a6.26,6.26,0,0,0,.73,2.92,4.28,4.28,0,0,0,1.2-3c0-1-.31-1.53-1-1.53S518.45,398,518.45,399.05Z"/>
      <path d="M537,389.42h3.6l4.56,22.4h-3.11l-1-5.71h-4.84l-1,5.71h-3.11Zm-.34,14.08h3.94l-1.93-10.8h-.06Z"/>
      <path d="M548.38,389.42h3.11v19.79h5.22v2.61h-8.32Z"/>
      <path d="M559.84,389.42h8.45V392h-5.34v7h5v2.61h-5v7.57h5.34v2.61h-8.45Z"/>
      <path d="M575.24,400.18l-4.5-10.76H574L577,397.3l2.92-7.88H583l-4.47,11.07,4.63,11.32h-3.29l-3-8.22-3.29,8.22H570.4Z"/>
      <path d="M590.34,389.42h3.6l4.56,22.4H595.4l-1-5.71h-4.84l-1,5.71H585.4ZM590,403.5h3.94L592,392.71h-.06Z"/>
      <path d="M601.67,389.42H606L609.62,408h.06V389.42h2.92v22.4h-4.47l-3.66-19.11h-.06v19.11h-2.73Z"/>
      <path d="M616.58,389.42h5c5,0,5.43,1.68,5.43,8.19v6.67c0,5.74-1,7.54-5.93,7.54h-4.5Zm3.11,19.79h1.49c2.3,0,2.73-1.21,2.73-5.06v-7.69c0-3.32-.34-4.44-3-4.44h-1.24Z"/>
      <path d="M630.89,389.42h8.45V392H634v7h5v2.61h-5v7.57h5.34v2.61h-8.45Z"/>
      <path d="M642.35,389.42h4.81c4.53,0,5,1.21,5,6.11,0,3-.4,4.31-2.95,5.09v.06c2.11.22,2.83,1.3,2.83,3.41V409a15.34,15.34,0,0,0,.19,2.85h-2.92a3.84,3.84,0,0,1-.37-2v-5.06c0-2.11-.37-2.67-2.42-2.67h-1.06v9.74h-3.11Zm3.11,10.05h.81c2.45,0,2.79-.47,2.79-3.82s-.19-3.63-2.11-3.63h-1.49Z"/>
      <path d="M663.56,389.42h5.12c4.22,0,5,1.15,5,6.33s-.81,6.33-5,6.33h-2v9.74h-3.11Zm3.11,10.05h1.61c2.11,0,2.33-.34,2.33-3.72s-.22-3.72-2.33-3.72h-1.61Z"/>
      <path d="M677.23,389.42h3.11v22.4h-3.11Z"/>
      <path d="M684.21,389.42h8.45V392h-5.34v7h5v2.61h-5v7.57h5.34v2.61h-8.45Z"/>
      <path d="M695.67,389.42h4.81c4.53,0,5,1.21,5,6.11,0,3-.4,4.31-2.95,5.09v.06c2.11.22,2.83,1.3,2.83,3.41V409a15.34,15.34,0,0,0,.19,2.85h-2.92a3.84,3.84,0,0,1-.37-2v-5.06c0-2.11-.37-2.67-2.42-2.67h-1.06v9.74h-3.11Zm3.11,10.05h.81c2.45,0,2.79-.47,2.79-3.82s-.19-3.63-2.11-3.63h-1.49Z"/>
      <path d="M716.66,395.34v-1.15c0-1.58-.78-2.54-2-2.54-1.43,0-2.14,1.3-2.14,3.69v11.29c0,1.8.87,2.95,2.14,2.95a9.07,9.07,0,0,0,2-.22v-6.58h-2v-2.61h5.15v11.26a26.1,26.1,0,0,1-5.12.56c-3.94,0-5.22-2.08-5.22-5.55V395.12c0-4.19,1.27-5.89,5.28-5.89,3.32,0,5.06,1.21,5.06,4.06v2Z"/>
      <path d="M723.75,389.42h8.45V392h-5.34v7h5v2.61h-5v7.57h5.34v2.61h-8.45Z"/>
      <path d="M735.2,389.42h4.29L743.15,408h.06V389.42h2.92v22.4h-4.47L738,392.71h-.06v19.11H735.2Z"/>
      <path d="M749.15,389.42h10.56V392H756v19.79h-3.11V392h-3.73Z"/>
      <path d="M762.63,389.42h3.11v22.4h-3.11Z"/>
      <path d="M769.61,389.42h3.11v19.79h5.22v2.61h-8.32Z"/>
      <path d="M781,389.42h3.11v22.4H781Z"/>
    </g>
    <g class="title">
      <path d="M990.59,117.89q-2.11-19.28-9.3-33.09a52.05,52.05,0,0,0-20.72-21.54q-13.31-7.62-35.63-7.74h-2.15q-22.32.12-35.63,7.74A52.09,52.09,0,0,0,866.44,84.8q-7.18,13.8-9.3,33.09A388.7,388.7,0,0,0,855,160a387.67,387.67,0,0,0,2.12,42.24q2.12,19.15,9.3,32.94a49.41,49.41,0,0,0,20.72,21.12q13.32,7.2,35.63,7.32h2.15q22.32-.11,35.63-7.32a49.38,49.38,0,0,0,20.72-21.12q7.18-13.79,9.3-32.94A386.28,386.28,0,0,0,992.71,160,387.29,387.29,0,0,0,990.59,117.89ZM924.21,234.62h-.69q-9,0-14.52-4.09t-8.45-13q-3-8.87-3.95-23.09t-1-34.5q0-20.28,1-34.36t3.95-23.09q3-9,8.45-13.09t14.52-4.08h.69q9,0,14.52,4.08t8.46,13.09q3,9,3.94,23.09t1,34.36q0,20.28-1,34.5t-3.94,23.09q-3,8.88-8.46,13T924.21,234.62Z"/>
      <path d="M790.29,191.21h.56V59h37.21V260.1H781.83L732.22,139.93h-.56V260.1H694.45V59h46.79Z"/>
      <path d="M622.44,59H663V260.1H622.44Z"/>
      <path d="M598.53,92.27h-44V260.1H514V92.27H470V59H598.53Z"/>
      <path d="M410,191.21h.56V59h37.21V260.1H401.59L352,139.93h-.56V260.1H314.2V59H361Z"/>
      <path d="M243.43,59,296.71,260.1H254.43l-9.3-42.52H191.56l-9.3,42.52H140L193.26,59Zm-5.36,125.31L218.63,94h-.56l-19.45,90.39Z"/>
      <path d="M143.77,59V92.27H71.89v47.31h67.65V172.8H71.89v87.3H31.29V59Z"/>
    </g>
    <g class="meta">
      <path d="M605.69.45l6.87,25.91h-5.45l-1.2-5.48H599l-1.2,5.48h-5.45L599.22.45ZM605,16.6,602.49,5h-.07L599.91,16.6Z"/>
      <path d="M574.84.45a7.29,7.29,0,0,1,5.09,1.65,6.46,6.46,0,0,1,1.82,5,7.81,7.81,0,0,1-1.05,4.26,4.88,4.88,0,0,1-3.27,2.12v.07a4.74,4.74,0,0,1,2.87,1.27A5.38,5.38,0,0,1,581.41,18q.07.73.11,1.58t.07,1.91q.07,2.07.22,3.16a2,2,0,0,0,.94,1.49v.22h-5.67a2.8,2.8,0,0,1-.51-1.25,13.91,13.91,0,0,1-.15-1.47l-.15-5a4.09,4.09,0,0,0-.76-2.4,2.8,2.8,0,0,0-2.32-.87h-2.8v11h-5.23V.45Zm-2.25,11.32a4.28,4.28,0,0,0,2.91-.89,3.8,3.8,0,0,0,1-3q0-3.59-3.63-3.59H570.4v7.48Z"/>
      <path d="M548.51.45l6.87,25.91h-5.45l-1.2-5.48h-6.9l-1.2,5.48h-5.45L542,.45Zm-.69,16.15L545.31,5h-.07L542.73,16.6Z"/>
      <path d="M518.16.45a12.68,12.68,0,0,1,3,.33,6.07,6.07,0,0,1,2.34,1.09,5,5,0,0,1,1.53,2A7.92,7.92,0,0,1,525.53,7a6.46,6.46,0,0,1-1,3.61,4.93,4.93,0,0,1-2.94,2.05v.07a5.15,5.15,0,0,1,3.45,1.85,6.41,6.41,0,0,1,1.27,4.17,10.42,10.42,0,0,1-.4,2.9,5.91,5.91,0,0,1-1.36,2.41,6.81,6.81,0,0,1-2.51,1.65,10.37,10.37,0,0,1-3.83.62H509.4V.45Zm-2,10.63a5.17,5.17,0,0,0,3.18-.78,3.14,3.14,0,0,0,1-2.63,3.25,3.25,0,0,0-.91-2.61,4.43,4.43,0,0,0-2.87-.76h-1.89v6.79Zm.54,11.43a5.12,5.12,0,0,0,3.05-.83,3.56,3.56,0,0,0,1.16-3.08,4.9,4.9,0,0,0-.31-1.87,3.14,3.14,0,0,0-.83-1.2,3,3,0,0,0-1.25-.64,6.59,6.59,0,0,0-1.6-.18h-2.25v7.8Z"/>
      <path d="M492,.51h5.23V26.42H492Z"/>
      <path d="M474.15.51a7.56,7.56,0,0,1,3.36.67,6.14,6.14,0,0,1,2.2,1.76,6.89,6.89,0,0,1,1.2,2.49,11.29,11.29,0,0,1,.36,2.85,9.29,9.29,0,0,1-.6,3.48A6.32,6.32,0,0,1,479,14.19a7,7,0,0,1-2.6,1.42,11.4,11.4,0,0,1-3.38.47h-2.8V26.42H465V.51Zm-1.6,11.72a3.45,3.45,0,0,0,2.52-.94,4,4,0,0,0,1-2.94,4.59,4.59,0,0,0-.84-3,3.43,3.43,0,0,0-2.8-1h-2.18v7.87Z"/>
      <path d="M450.08.51l6.87,25.91H451.5l-1.2-5.48h-6.9l-1.2,5.48h-5.45L443.61.51Zm-.69,16.15L446.88,5h-.07l-2.51,11.65Z"/>
      <path d="M422.4,5.13a2.52,2.52,0,0,0-2.45-1.29,2.45,2.45,0,0,0-1.62.53,3.49,3.49,0,0,0-1,1.71,14.51,14.51,0,0,0-.51,3.08q-.15,1.91-.15,4.66a45.17,45.17,0,0,0,.2,4.75,10.53,10.53,0,0,0,.62,2.81,2.57,2.57,0,0,0,1.05,1.34,3,3,0,0,0,1.47.34,3.49,3.49,0,0,0,1.29-.24,2.19,2.19,0,0,0,1-.94,6.14,6.14,0,0,0,.69-2,18.22,18.22,0,0,0,.25-3.39h5.23a23.35,23.35,0,0,1-.33,4,9,9,0,0,1-1.22,3.3A6,6,0,0,1,424.47,26a9.5,9.5,0,0,1-4.2.8,9.88,9.88,0,0,1-4.69-.94,6.37,6.37,0,0,1-2.67-2.72,12,12,0,0,1-1.2-4.25,49.85,49.85,0,0,1-.27-5.44A50,50,0,0,1,411.72,8a12,12,0,0,1,1.2-4.26A6.71,6.71,0,0,1,415.59,1a9.43,9.43,0,0,1,4.69-1,9.06,9.06,0,0,1,4.41.91,6.18,6.18,0,0,1,2.42,2.3,8,8,0,0,1,1,3,24.8,24.8,0,0,1,.2,3h-5.23A9.4,9.4,0,0,0,422.4,5.13Z"/>
    </g>
  </g>
</svg>
